<?xml version="1.0" encoding="UTF-8" ?>
<!DOCTYPE svg PUBLIC "-//W3C//DTD SVG 1.1//EN" "http://www.w3.org/Graphics/SVG/1.1/DTD/svg11.dtd">
<svg width="75pt" height="128pt" viewBox="0 0 75 128" version="1.1" xmlns="http://www.w3.org/2000/svg">
<path fill="#ffffff" stroke="#ffffff" stroke-width="0.09375" d=" M 0.0 0.0 L 75.0 0.0 L 75.0 128.0 L 0.0 128.0 L 0.0 0.0 Z" />
<path fill="#433d36" stroke="#433d36" stroke-width="0.09375" d=" M 3.3 17.3 C 4.5 13.7 7.2 10.0 11.1 9.1 C 13.2 9.0 15.7 10.6 15.7 12.8 C 14.4 15.8 10.7 15.9 7.9 16.2 C 8.9 17.0 10.0 17.7 11.0 18.5 C 9.4 20.4 6.9 19.4 4.8 19.1 C 5.2 26.8 7.5 35.3 14.1 39.9 C 18.4 43.0 23.9 43.5 29.0 43.6 C 27.1 40.7 24.8 37.9 24.6 34.4 C 25.8 31.4 28.4 29.0 28.2 25.6 C 26.0 25.8 23.3 26.2 21.8 24.2 C 20.3 22.3 19.8 18.4 22.6 17.5 C 25.3 16.0 28.1 17.6 30.1 19.4 C 32.5 17.8 35.1 16.3 38.0 16.7 C 41.1 16.8 43.5 19.0 45.6 20.9 C 47.4 19.0 49.8 16.9 52.7 18.0 C 56.3 20.3 54.9 26.3 50.8 27.0 C 49.0 27.8 45.8 26.2 45.4 28.9 C 47.7 31.5 50.4 34.3 50.4 38.0 C 50.6 41.0 48.5 43.2 47.0 45.5 C 54.5 48.8 61.9 54.3 64.9 62.2 C 67.0 67.5 64.1 72.9 60.8 76.8 C 57.9 79.1 53.0 78.0 52.5 74.0 C 54.2 73.5 55.9 73.0 57.7 72.7 C 57.9 72.1 58.4 70.8 58.6 70.2 C 59.8 70.8 60.9 71.3 62.1 71.9 C 63.6 69.1 64.8 65.8 63.4 62.8 C 60.4 55.0 53.1 49.9 46.0 46.2 C 46.7 58.3 49.8 70.0 51.0 82.0 C 51.6 83.7 50.4 84.9 49.3 86.0 C 52.9 87.3 57.9 87.0 59.9 91.0 C 62.6 96.6 60.1 102.9 58.9 108.5 C 61.5 109.9 64.7 111.7 64.9 115.0 C 64.8 117.0 63.5 119.7 61.1 119.2 C 60.1 117.6 59.5 115.8 58.8 114.0 C 57.5 114.4 56.2 114.9 54.9 115.2 C 54.6 113.9 54.1 112.6 54.2 111.2 C 55.4 108.8 57.8 107.0 58.1 104.1 C 59.1 99.7 60.6 94.3 57.5 90.5 C 54.2 88.4 50.2 87.9 46.8 86.0 C 41.9 86.4 37.1 87.6 32.2 88.3 C 27.8 89.5 23.3 88.8 18.9 89.1 C 18.0 94.4 22.1 98.2 25.0 102.0 C 26.3 103.9 28.4 104.8 30.0 106.3 C 30.4 107.8 30.2 109.4 30.2 111.0 C 29.5 111.1 28.1 111.4 27.3 111.5 C 26.9 113.1 26.3 114.7 25.8 116.3 C 22.1 117.4 20.5 113.0 20.9 110.1 C 20.9 107.6 23.5 106.5 25.1 105.1 C 21.9 100.2 16.1 95.8 17.1 89.3 C 19.5 86.1 24.2 87.9 27.6 87.9 C 25.8 83.1 25.6 78.0 25.5 73.0 C 25.7 63.4 27.0 53.8 29.4 44.6 C 23.3 45.1 16.6 44.2 12.0 39.9 C 5.4 34.5 3.5 25.4 3.3 17.3 Z" />
<path fill="#f2d5b1" stroke="#f2d5b1" stroke-width="0.09375" d=" M 4.8 16.7 C 6.3 14.6 7.6 11.9 10.2 10.9 C 11.8 10.7 14.5 10.6 14.2 13.0 C 12.1 14.5 9.4 14.8 6.9 15.1 C 6.8 15.9 6.7 17.4 6.6 18.2 C 6.2 17.8 5.3 17.1 4.8 16.7 Z" />
<path fill="#f2d5b1" stroke="#f2d5b1" stroke-width="0.09375" d=" M 22.0 19.1 C 24.5 17.9 27.1 18.6 29.4 20.0 C 28.9 21.4 28.5 22.8 27.7 24.0 C 25.8 24.7 23.3 24.6 22.3 22.6 C 22.1 21.4 22.0 20.3 22.0 19.1 Z" />
<path fill="#c69c6c" stroke="#c69c6c" stroke-width="0.09375" d=" M 33.7 18.7 C 39.2 15.9 47.1 21.8 44.3 28.0 C 39.4 25.5 33.7 25.2 28.7 27.6 C 29.0 24.1 30.0 20.0 33.7 18.7 Z" />
<path fill="#f2d5b1" stroke="#f2d5b1" stroke-width="0.09375" d=" M 46.2 25.9 C 45.4 22.9 46.7 19.5 50.1 19.0 C 53.4 18.2 54.6 23.4 52.1 25.0 C 50.5 26.6 48.1 25.8 46.2 25.9 Z" />
<path fill="#433d36" stroke="#433d36" stroke-width="0.09375" d=" M 33.1 23.1 C 34.5 22.7 35.0 23.2 34.6 24.6 C 33.2 25.0 32.7 24.5 33.1 23.1 Z" />
<path fill="#060404" stroke="#060404" stroke-width="0.09375" d=" M 40.2 24.2 C 40.8 24.8 40.8 24.8 40.2 24.2 Z" />
<path fill="#f2d5b1" stroke="#f2d5b1" stroke-width="0.09375" d=" M 28.6 29.6 C 35.6 24.7 47.0 28.1 49.1 36.7 C 42.0 41.0 33.1 39.2 26.4 34.9 C 27.0 33.1 27.3 31.1 28.6 29.6 Z" />
<path fill="#433d36" stroke="#433d36" stroke-width="0.09375" d=" M 38.3 30.2 C 38.8 30.8 38.8 30.8 38.3 30.2 Z" />
<path fill="#f2d5b1" stroke="#f2d5b1" stroke-width="0.09375" d=" M 26.6 36.9 C 31.2 38.7 35.9 41.2 41.0 41.1 C 43.9 41.1 46.6 39.8 49.2 38.6 C 48.2 40.9 47.2 43.6 44.6 44.6 C 37.9 47.7 29.1 43.9 26.6 36.9 Z" />
<path fill="#c69c6c" stroke="#c69c6c" stroke-width="0.09375" d=" M 30.4 45.1 C 34.8 46.5 39.3 47.4 43.9 47.1 C 44.9 59.6 48.6 71.7 49.9 84.1 C 43.0 85.1 36.1 86.3 29.2 87.1 C 25.5 73.3 27.9 58.9 30.4 45.1 Z" />
<path fill="#f2d5b1" stroke="#f2d5b1" stroke-width="0.09375" d=" M 53.9 75.2 C 56.1 74.3 58.7 74.0 60.3 72.0 C 60.7 73.0 61.0 74.0 61.3 75.1 C 59.0 76.7 56.1 77.5 53.9 75.2 Z" />
<path fill="#f2d5b1" stroke="#f2d5b1" stroke-width="0.09375" d=" M 25.5 106.2 C 27.0 105.2 28.2 106.9 29.3 107.8 C 26.5 109.2 25.4 111.9 24.6 114.7 C 22.7 115.3 22.9 112.9 22.4 111.8 C 21.7 109.4 23.9 107.6 25.5 106.2 Z" />
<path fill="#f2d5b1" stroke="#f2d5b1" stroke-width="0.09375" d=" M 57.0 109.2 C 59.1 110.3 61.4 111.3 62.9 113.3 C 63.1 114.7 63.1 116.0 63.0 117.4 C 61.4 116.3 60.5 114.7 59.7 113.0 C 58.4 112.9 57.0 112.8 55.7 112.6 C 56.1 111.5 56.5 110.3 57.0 109.2 Z" />
</svg>
