<?xml version="1.0" encoding="UTF-8" ?>
<!DOCTYPE svg PUBLIC "-//W3C//DTD SVG 1.1//EN" "http://www.w3.org/Graphics/SVG/1.1/DTD/svg11.dtd">
<svg width="760pt" height="350pt" viewBox="0 0 760 350" version="1.1" xmlns="http://www.w3.org/2000/svg">
<path fill="#ffffff" stroke="#ffffff" stroke-width="0.09375" d=" M 0.0 0.0 L 760.0 0.0 L 760.0 350.0 L 0.0 350.0 L 0.0 0.0 Z" />
<path fill="#010101" stroke="#010101" stroke-width="0.09375" d=" M 519.3 5.1 C 528.9 9.6 538.3 14.5 547.9 19.1 C 553.9 21.9 559.5 25.9 566.1 26.9 C 572.4 28.0 578.6 30.8 585.0 29.6 C 598.6 28.1 612.2 27.4 625.8 26.6 C 635.3 23.0 644.8 19.2 655.0 17.8 C 658.4 17.6 660.0 14.2 662.5 12.5 C 673.3 3.8 691.2 6.7 698.4 18.7 C 699.8 22.1 703.8 23.6 707.2 22.2 C 720.4 19.1 735.0 29.3 736.1 43.0 C 737.0 46.8 734.5 50.9 736.7 54.3 C 743.8 68.0 746.4 83.7 745.7 99.1 C 744.7 119.1 738.6 138.7 728.8 156.1 C 729.7 159.3 730.9 162.4 731.4 165.7 C 732.4 173.0 736.4 179.5 740.5 185.5 C 742.2 187.9 742.7 191.0 744.6 193.4 C 748.8 198.9 753.0 204.5 757.1 210.1 C 751.6 209.0 745.9 208.5 740.7 206.1 C 737.9 206.2 735.0 206.8 732.2 207.2 C 730.0 211.0 727.6 214.7 725.8 218.7 C 724.5 222.4 723.5 226.2 722.5 230.0 C 720.2 230.0 718.0 229.8 715.8 229.6 C 714.6 221.8 713.2 213.9 712.7 206.0 C 709.5 208.6 706.4 211.3 703.4 214.0 C 706.1 218.4 710.2 221.6 713.3 225.6 C 715.3 229.1 717.1 232.6 718.6 236.2 C 718.9 241.1 718.8 245.9 718.7 250.8 C 715.1 256.7 710.8 262.3 706.9 268.0 C 703.4 271.7 699.4 275.1 695.5 278.5 C 691.5 281.0 687.3 283.4 683.0 285.5 C 674.6 285.2 666.3 284.1 658.0 283.4 C 651.1 283.0 645.4 278.6 639.8 275.1 C 635.8 273.3 631.5 272.0 627.1 271.5 C 626.5 272.6 626.2 273.8 626.0 275.0 C 629.0 291.9 628.8 309.1 630.1 326.1 C 627.0 326.8 624.0 327.5 621.0 328.1 C 617.8 320.1 615.4 311.8 611.4 304.2 C 609.9 305.8 608.0 307.1 607.2 309.3 C 603.1 319.9 599.4 330.8 595.0 341.4 C 592.7 330.3 591.1 319.1 589.1 308.0 C 589.1 306.5 588.0 305.4 587.1 304.3 C 576.8 311.5 566.9 319.3 556.7 326.5 C 559.7 315.9 563.4 305.4 566.6 294.8 C 568.7 287.2 573.5 280.6 575.9 273.1 C 578.0 266.5 581.3 260.4 584.0 254.0 C 587.7 244.9 591.9 236.1 596.9 227.6 C 581.9 223.9 568.2 215.4 558.7 203.2 C 555.1 205.3 551.7 207.9 548.3 210.3 C 540.7 214.8 533.1 219.2 525.3 223.3 C 520.7 226.0 515.9 228.2 510.7 229.7 C 492.1 236.6 474.0 244.7 455.5 251.7 C 464.0 240.4 472.4 229.1 481.2 218.2 C 473.0 211.1 463.1 206.3 454.5 199.7 C 463.7 198.2 473.2 198.3 482.3 195.7 C 476.1 187.0 467.3 181.0 459.5 173.9 C 460.8 171.5 462.1 169.1 463.4 166.6 C 337.3 166.6 211.1 166.6 85.0 166.6 C 77.7 166.6 70.4 166.8 63.1 166.2 C 57.2 165.6 51.1 166.5 45.3 164.7 C 40.9 163.4 36.1 162.9 31.9 161.1 C 26.9 157.8 21.6 154.8 16.9 151.1 C 12.9 145.5 8.7 140.0 4.2 134.7 C 2.6 126.0 2.6 117.1 4.2 108.4 C 8.0 106.0 11.3 103.1 15.1 100.9 C 22.9 99.8 30.8 101.5 37.5 105.5 C 39.6 109.5 41.4 113.7 45.0 116.8 C 45.0 104.1 45.0 91.5 45.0 78.9 C 44.9 75.6 47.5 72.5 50.9 72.5 C 57.0 72.5 63.0 72.4 69.1 72.6 C 73.9 73.4 74.4 78.8 74.1 82.8 C 77.5 82.9 81.1 82.1 84.3 83.8 C 86.7 84.8 88.9 86.2 90.9 88.0 C 94.7 85.3 99.1 82.7 104.0 82.8 C 108.0 82.8 112.0 82.6 116.0 83.0 C 119.4 83.3 122.2 85.1 125.1 86.6 C 126.6 85.4 128.1 84.1 130.0 83.5 C 135.9 83.3 141.9 83.7 147.9 83.4 C 154.1 82.8 161.2 81.3 166.8 85.2 C 171.3 87.7 173.4 93.0 173.2 98.0 C 173.2 106.9 173.3 115.8 173.3 124.7 C 174.6 124.8 175.9 124.8 177.3 124.8 C 173.9 119.1 174.0 112.4 173.9 106.0 C 173.9 103.9 175.3 102.1 176.1 100.2 C 173.1 95.3 173.7 89.5 173.7 84.0 C 173.5 77.8 176.9 71.3 182.7 68.7 C 188.4 65.8 194.9 66.5 201.0 66.5 C 204.8 66.5 208.5 67.6 211.6 69.7 C 210.7 65.8 212.8 61.3 217.0 60.5 C 223.4 60.5 229.7 60.4 236.1 60.6 C 240.3 61.4 241.1 66.1 241.0 69.7 C 244.5 69.3 247.5 67.2 251.0 66.7 C 258.7 66.2 267.0 65.7 273.8 70.1 C 275.2 69.1 276.5 68.0 278.2 67.4 C 286.1 66.8 294.1 67.9 302.0 66.6 C 306.3 66.5 311.0 65.8 314.7 68.3 C 319.3 70.7 322.3 75.8 322.2 81.0 C 322.3 92.6 322.2 104.3 322.3 116.0 C 322.3 119.1 321.6 122.1 320.3 124.8 C 321.9 124.8 323.4 124.8 325.0 124.7 C 325.0 110.2 325.0 95.6 325.0 81.0 C 324.9 77.7 327.7 74.9 331.0 74.8 C 336.3 74.7 341.7 74.8 347.1 74.7 C 349.2 74.6 351.4 75.5 353.0 76.9 C 355.1 79.5 354.4 82.8 354.5 85.8 C 369.0 85.7 383.5 85.8 398.0 85.8 C 403.1 85.7 408.2 86.0 413.2 85.4 C 417.9 85.2 422.9 84.5 427.1 87.0 C 433.3 84.2 440.7 84.6 447.1 86.8 C 455.3 84.6 463.9 86.5 472.2 85.4 C 477.1 85.3 482.5 84.4 486.9 87.1 C 491.5 89.5 494.4 94.8 494.0 99.9 C 494.0 108.2 494.0 116.5 494.0 124.8 C 496.7 124.3 500.5 126.0 502.3 123.3 C 510.4 113.0 522.4 107.0 534.4 102.5 C 540.5 101.9 547.0 99.8 553.0 102.5 C 559.0 88.9 567.3 76.3 576.8 64.9 C 574.2 65.8 571.3 66.3 568.9 67.9 C 557.7 75.5 546.6 83.3 535.2 90.7 C 538.8 81.2 543.0 71.9 546.7 62.4 C 532.6 66.0 518.1 68.5 503.8 71.3 C 509.7 64.1 515.8 56.9 522.2 50.0 C 516.2 49.6 510.1 49.4 504.1 49.2 C 503.7 46.9 503.3 44.6 503.0 42.3 C 512.0 38.7 521.9 37.0 529.8 31.1 C 526.3 22.4 522.6 13.8 519.3 5.1 Z" />
<path fill="#ffffff" stroke="#ffffff" stroke-width="0.09375" d=" M 660.7 27.4 C 662.4 19.3 670.9 13.7 679.0 14.5 C 686.6 14.9 693.2 20.7 694.9 28.0 C 690.5 32.8 687.6 38.8 687.3 45.3 C 682.2 48.2 675.8 49.1 670.4 46.5 C 663.2 43.5 658.6 35.1 660.7 27.4 Z" />
<path fill="#679901" stroke="#679901" stroke-width="0.09375" d=" M 533.0 19.8 C 540.9 23.0 548.3 27.4 556.0 31.1 C 561.3 33.4 567.1 34.0 572.6 35.5 C 576.4 36.6 580.5 37.3 584.5 36.7 C 596.3 35.6 608.1 34.3 620.0 34.1 C 623.6 33.8 627.4 34.3 630.7 32.6 C 638.0 29.1 645.8 26.7 653.7 25.0 C 653.0 31.0 653.0 37.4 656.2 42.7 C 660.0 49.2 666.7 53.9 674.1 54.8 C 679.0 55.5 683.8 54.2 688.5 53.1 C 690.9 58.7 694.7 64.0 700.3 66.7 C 708.3 70.9 718.7 70.4 726.1 65.0 C 728.1 63.5 729.9 61.8 731.8 60.1 C 742.9 84.7 740.0 113.5 729.8 137.8 C 727.3 143.5 725.1 149.5 721.1 154.3 C 722.4 159.2 724.2 164.0 725.0 169.0 C 725.9 174.8 728.7 180.2 731.9 185.1 C 735.0 189.5 736.7 194.7 739.9 199.0 C 735.8 199.8 731.5 199.8 727.7 201.5 C 724.8 205.5 723.0 210.0 720.3 214.1 C 719.3 207.0 719.1 199.8 718.0 192.7 C 712.7 196.3 708.3 200.9 703.2 204.9 C 703.2 198.4 703.5 191.8 703.1 185.3 C 698.0 184.7 693.0 184.2 688.0 183.6 C 693.3 178.5 699.9 174.4 704.1 168.1 C 706.2 160.7 709.1 153.5 710.4 145.9 C 708.3 145.4 706.1 145.0 704.0 144.5 C 702.6 149.6 701.0 154.5 699.6 159.6 C 699.0 161.8 698.5 164.2 696.9 165.9 C 692.8 170.4 688.4 174.7 683.3 178.2 C 689.8 161.8 690.1 143.0 683.6 126.5 C 681.2 120.1 677.6 114.4 673.8 108.8 C 679.6 104.9 685.5 101.0 691.6 97.5 C 695.6 94.9 700.6 96.3 705.0 95.0 C 712.3 93.1 719.7 91.0 726.3 87.1 C 725.5 85.1 724.7 83.0 723.8 81.0 C 716.0 83.9 708.5 88.2 700.1 88.7 C 695.7 88.8 691.2 89.1 686.9 88.1 C 676.6 85.3 666.0 82.2 657.4 75.6 C 653.2 72.2 648.5 69.2 645.4 64.6 C 641.9 60.1 642.1 54.1 640.8 48.7 C 638.5 49.0 636.3 49.3 634.1 49.8 C 635.4 55.6 635.2 62.1 638.9 67.0 C 639.8 68.4 640.7 69.7 641.7 71.0 C 638.6 75.3 635.2 79.4 631.3 82.8 L 630.5 82.7 C 611.9 78.8 591.9 83.6 576.7 94.7 C 566.9 101.9 559.5 111.7 553.8 122.3 C 555.0 114.9 558.3 108.1 561.3 101.3 C 568.2 86.8 577.7 73.5 589.0 62.0 C 593.3 58.7 598.2 56.4 603.1 54.1 C 608.7 51.8 614.9 52.3 620.8 51.6 C 620.7 49.4 620.6 47.2 620.6 45.0 C 613.6 44.8 606.4 45.1 599.8 47.8 C 595.9 49.4 592.4 52.0 588.5 53.5 C 583.1 55.6 577.6 57.3 572.1 59.0 C 564.1 61.3 558.4 67.8 551.0 71.4 C 552.4 66.9 554.6 62.7 556.0 58.2 C 554.9 56.8 553.7 55.4 552.6 54.0 C 542.4 56.0 532.3 59.2 521.9 60.8 C 526.8 54.6 533.1 49.9 538.2 43.9 C 533.2 43.3 528.0 43.3 522.9 43.0 C 528.2 40.2 533.2 37.0 538.2 33.7 C 536.8 29.0 534.6 24.5 533.0 19.8 Z" />
<path fill="#010101" stroke="#010101" stroke-width="0.09375" d=" M 674.3 24.1 C 678.7 22.0 684.9 25.0 685.2 30.1 C 686.3 35.7 679.9 40.5 674.7 38.2 C 668.7 36.1 668.4 26.6 674.3 24.1 Z" />
<path fill="#ffffff" stroke="#ffffff" stroke-width="0.09375" d=" M 706.4 29.6 C 716.3 26.0 728.3 33.4 729.2 44.0 C 730.4 53.3 722.3 62.2 713.0 62.5 C 704.7 63.3 696.3 57.2 694.8 48.9 C 692.9 40.7 698.4 31.9 706.4 29.6 Z" />
<path fill="#010101" stroke="#010101" stroke-width="0.09375" d=" M 709.4 38.4 C 714.2 36.5 720.0 40.7 719.5 46.0 C 719.6 52.0 711.7 55.5 707.2 51.8 C 702.4 48.4 703.7 40.0 709.4 38.4 Z" />
<path fill="#010101" stroke="#010101" stroke-width="0.09375" d=" M 670.3 61.3 C 673.1 60.4 675.5 63.8 674.3 66.3 C 673.2 69.0 668.8 69.0 667.8 66.2 C 666.6 64.3 668.3 61.7 670.3 61.3 Z" />
<path fill="#010101" stroke="#010101" stroke-width="0.09375" d=" M 682.4 67.3 C 683.7 66.8 685.3 66.5 686.7 67.1 C 688.7 68.2 688.5 70.8 687.7 72.6 C 686.2 73.9 683.7 74.3 682.3 72.7 C 680.6 71.3 681.1 68.8 682.4 67.3 Z" />
<path fill="#ffff99" stroke="#ffff99" stroke-width="0.09375" d=" M 218.5 67.5 C 223.6 67.5 228.7 67.4 233.8 67.6 C 233.7 70.2 233.7 72.8 233.9 75.5 C 235.2 75.5 236.6 75.5 238.0 75.6 C 238.0 78.1 238.0 80.6 238.0 83.2 C 236.6 83.2 235.2 83.3 233.8 83.3 C 233.9 94.1 233.4 104.9 234.2 115.6 C 235.6 115.8 237.1 116.0 238.5 116.2 C 238.5 118.8 238.5 121.4 238.5 124.0 C 234.4 123.9 230.2 124.2 226.1 123.8 C 222.6 123.4 219.2 120.6 219.0 117.0 C 218.3 106.0 218.5 94.9 218.5 83.9 C 217.5 83.3 216.4 82.8 215.3 82.3 C 215.5 80.2 215.5 78.0 215.5 75.8 C 216.3 75.7 217.7 75.3 218.5 75.2 C 218.5 72.6 218.5 70.1 218.5 67.5 Z" />
<path fill="#ffff99" stroke="#ffff99" stroke-width="0.09375" d=" M 181.7 80.8 C 183.3 76.0 188.4 74.1 193.0 73.6 C 199.1 73.1 206.2 73.6 210.4 78.5 C 213.5 81.6 212.3 86.2 212.5 90.0 C 208.1 90.0 203.7 90.0 199.3 90.0 C 199.2 87.6 199.2 85.2 199.1 82.9 C 197.8 82.6 196.0 81.5 195.1 83.1 C 194.0 85.5 193.9 89.0 196.1 90.9 C 200.9 95.0 207.8 96.1 211.9 101.1 C 214.6 105.6 214.0 111.2 213.2 116.2 C 212.4 121.2 207.4 123.9 202.8 124.4 C 196.1 125.3 188.2 124.9 183.4 119.5 C 180.8 115.7 181.4 110.9 181.0 106.5 C 185.4 106.5 189.9 106.5 194.4 106.5 C 195.1 109.6 193.6 113.7 196.2 116.0 C 201.1 117.1 200.0 110.6 199.3 107.7 C 194.0 103.2 186.5 101.5 182.3 95.7 C 180.1 91.1 180.2 85.5 181.7 80.8 Z" />
<path fill="#ffff99" stroke="#ffff99" stroke-width="0.09375" d=" M 247.1 76.1 C 251.8 73.3 257.7 73.0 263.0 73.9 C 267.8 74.8 272.4 78.1 274.1 82.8 C 276.2 88.3 275.4 94.3 275.5 100.0 C 269.0 100.0 262.5 100.0 256.0 100.0 C 256.2 105.4 255.4 111.0 256.9 116.3 C 258.1 116.1 259.3 115.8 260.4 115.4 C 261.6 111.5 260.8 107.3 261.0 103.2 C 265.8 103.3 270.6 103.3 275.4 103.2 C 275.6 108.9 276.3 115.5 271.9 119.8 C 267.4 125.2 259.7 125.3 253.4 124.4 C 247.1 123.6 241.6 118.3 241.2 111.9 C 240.6 103.6 240.5 95.2 241.1 86.9 C 241.4 82.7 243.4 78.4 247.1 76.1 Z" />
<path fill="#ffff99" stroke="#ffff99" stroke-width="0.09375" d=" M 280.6 74.2 C 285.6 74.3 290.6 74.3 295.6 74.2 C 295.7 75.1 295.9 76.9 295.9 77.8 C 298.6 75.8 301.5 73.5 305.0 73.5 C 309.9 73.0 315.0 76.9 315.1 82.0 C 315.5 89.3 315.1 96.7 315.2 104.0 C 315.1 108.8 315.7 113.8 314.6 118.5 C 313.6 122.7 309.1 125.1 305.0 124.8 C 301.2 125.0 298.3 122.3 295.5 120.1 C 295.5 123.7 295.5 127.3 295.5 130.9 C 290.5 131.0 285.5 131.0 280.5 131.0 C 280.5 112.1 280.4 93.1 280.6 74.2 Z" />
<path fill="#ff0140" stroke="#ff0140" stroke-width="0.09375" d=" M 639.6 84.6 C 642.1 81.9 644.4 78.9 646.8 76.1 C 650.5 78.9 654.0 81.9 657.8 84.4 C 650.2 92.7 641.7 100.0 632.8 106.8 C 626.1 110.9 619.6 115.5 613.2 120.2 C 606.0 125.8 597.5 129.2 589.6 133.6 C 583.2 136.3 576.4 137.8 569.8 139.8 C 561.2 141.1 552.6 141.8 544.0 142.5 C 527.0 142.5 510.0 142.6 493.0 142.4 C 493.6 138.9 494.0 135.4 494.2 131.8 C 506.9 131.6 519.7 132.0 532.5 131.6 C 542.9 130.8 553.4 130.5 563.8 129.4 C 571.3 127.6 578.7 125.6 586.1 123.1 C 593.3 119.3 600.5 115.1 607.0 110.1 C 614.9 104.3 622.8 98.6 630.2 92.2 C 633.2 89.5 636.9 87.7 639.6 84.6 Z" />
<path fill="#ffff99" stroke="#ffff99" stroke-width="0.09375" d=" M 52.0 79.5 C 57.0 79.5 62.0 79.5 67.0 79.5 C 67.0 84.1 67.0 88.6 67.0 93.2 C 70.0 91.2 73.3 89.3 77.0 89.7 C 82.1 89.7 86.9 93.7 86.8 99.0 C 87.2 112.7 86.9 126.5 87.0 140.2 C 81.9 140.3 76.8 140.3 71.8 140.2 C 71.6 126.4 71.9 112.7 71.6 98.9 C 70.4 98.8 69.1 98.6 67.9 98.5 C 67.2 102.0 67.0 105.5 67.0 109.0 C 67.0 119.4 67.0 129.8 67.0 140.2 C 62.0 140.3 57.0 140.3 52.0 140.2 C 52.0 120.0 52.0 99.8 52.0 79.5 Z" />
<path fill="#99cc67" stroke="#99cc67" stroke-width="0.09375" d=" M 576.7 94.7 C 591.9 83.6 611.9 78.8 630.5 82.7 C 619.8 92.0 608.6 100.8 596.9 108.9 C 590.9 112.2 585.3 116.7 578.4 118.3 C 570.1 120.4 562.0 123.6 553.3 123.2 L 553.8 122.3 C 559.5 111.7 566.9 101.9 576.7 94.7 Z" />
<path fill="#010101" stroke="#010101" stroke-width="0.09375" d=" M 257.0 82.0 C 258.1 82.2 259.1 82.5 260.2 82.9 C 260.3 85.9 260.3 88.8 260.2 91.8 C 258.8 91.8 257.4 91.8 256.0 91.8 C 256.0 88.5 255.8 85.1 257.0 82.0 Z" />
<path fill="#010101" stroke="#010101" stroke-width="0.09375" d=" M 296.0 82.8 C 297.3 82.3 300.1 81.6 300.0 84.0 C 299.9 94.6 300.2 105.2 299.8 115.9 C 298.6 115.9 297.4 115.9 296.2 115.9 C 295.0 104.9 295.4 93.8 296.0 82.8 Z" />
<path fill="#ffff99" stroke="#ffff99" stroke-width="0.09375" d=" M 332.0 81.8 C 337.2 81.7 342.3 81.7 347.5 81.8 C 347.5 84.4 347.5 87.1 347.4 89.8 C 342.3 89.7 337.2 89.7 332.0 89.8 C 332.0 87.1 332.0 84.4 332.0 81.8 Z" />
<path fill="#cc0134" stroke="#cc0134" stroke-width="0.09375" d=" M 664.3 88.1 C 670.4 90.5 676.9 92.0 683.1 94.2 C 678.2 98.0 672.6 100.9 667.8 104.8 C 660.0 111.0 652.5 117.6 644.5 123.5 C 635.1 130.5 626.1 138.0 616.2 144.2 C 610.5 148.3 603.7 150.5 597.3 153.2 C 592.5 155.3 587.1 155.2 582.0 155.9 C 572.4 156.8 562.7 158.5 553.0 158.3 C 528.0 159.0 503.0 159.5 478.0 159.3 C 345.3 159.3 212.7 159.3 80.0 159.3 C 70.0 159.4 60.0 159.1 50.1 157.9 C 42.2 155.5 34.1 152.7 27.6 147.5 C 21.3 143.9 17.0 137.9 12.9 132.1 C 9.0 126.7 11.7 119.9 12.2 113.9 C 19.6 122.7 23.3 134.2 31.9 142.1 C 34.2 144.3 36.4 147.5 40.0 147.2 C 53.3 148.0 66.7 148.7 80.0 149.4 C 94.0 149.6 108.0 149.4 121.9 149.5 C 125.5 149.3 126.8 153.7 130.1 154.1 C 135.7 154.5 141.4 154.3 147.0 154.2 C 150.9 154.4 152.3 149.3 156.1 149.5 C 211.2 149.5 266.3 149.5 321.4 149.5 C 322.4 152.0 323.0 155.5 326.2 156.1 C 331.1 156.9 336.1 156.4 341.0 156.4 C 346.0 156.5 349.9 153.0 353.0 149.6 C 362.7 151.6 372.3 149.2 382.0 149.7 C 392.0 149.6 402.0 149.8 412.0 149.7 C 422.6 150.0 433.2 149.2 443.8 149.9 C 446.2 151.6 446.6 155.7 450.1 156.2 C 456.0 156.8 462.0 156.5 468.0 156.4 C 471.5 156.5 473.3 153.3 474.6 150.6 C 480.4 150.6 486.2 149.3 492.0 149.4 C 510.0 149.4 528.0 149.6 545.9 149.4 C 556.3 148.2 567.0 148.4 576.9 144.9 C 583.3 142.8 590.1 141.5 596.0 138.0 C 602.8 134.1 610.2 131.2 616.4 126.5 C 623.0 121.6 629.6 116.9 636.6 112.6 C 646.6 105.4 655.7 97.0 664.3 88.1 Z" />
<path fill="#ffff99" stroke="#ffff99" stroke-width="0.09375" d=" M 103.3 90.2 C 108.5 89.3 114.3 89.4 119.0 92.0 C 123.9 94.2 126.6 99.8 126.5 105.0 C 126.5 111.3 126.5 117.7 126.5 124.0 C 126.5 128.0 125.7 132.1 123.3 135.3 C 120.8 139.0 116.2 140.6 112.0 140.9 C 107.6 141.1 102.8 141.3 98.8 139.2 C 94.5 137.3 92.3 132.5 92.1 128.0 C 91.7 119.1 91.3 110.2 92.5 101.4 C 93.3 95.8 97.8 91.3 103.3 90.2 Z" />
<path fill="#ffff99" stroke="#ffff99" stroke-width="0.09375" d=" M 131.5 90.6 C 136.5 90.4 141.5 90.6 146.6 90.5 C 146.7 91.7 146.8 92.9 146.9 94.1 C 149.4 92.3 151.8 89.9 155.0 89.8 C 160.1 88.9 165.9 92.5 166.0 98.0 C 166.6 107.6 166.1 117.3 166.3 127.0 C 166.2 131.3 166.5 136.7 162.4 139.3 C 157.2 142.9 150.4 140.6 146.5 136.3 C 146.5 139.9 146.5 143.5 146.5 147.1 C 141.5 147.3 136.5 147.2 131.5 147.2 C 131.4 128.4 131.6 109.5 131.5 90.6 Z" />
<path fill="#ffff99" stroke="#ffff99" stroke-width="0.09375" d=" M 408.0 97.2 C 410.2 94.9 412.7 92.3 416.1 92.3 C 420.5 91.5 424.6 94.0 427.3 97.3 C 429.4 95.4 431.3 92.9 434.2 92.5 C 437.6 91.9 441.7 92.0 444.2 94.8 C 446.3 96.5 447.0 99.3 447.0 101.9 C 447.0 115.4 447.0 129.0 447.0 142.5 C 442.2 142.5 437.4 142.5 432.6 142.5 C 432.3 130.0 432.6 117.5 432.4 105.0 C 432.3 103.6 432.4 101.7 430.9 101.0 C 429.4 100.5 427.9 101.6 427.9 103.1 C 427.2 116.2 427.6 129.4 427.5 142.5 C 422.6 142.5 417.7 142.5 412.9 142.5 C 412.6 130.0 412.8 117.5 412.8 105.0 C 412.8 103.5 412.4 102.1 412.0 100.7 C 410.8 101.2 408.7 100.8 408.4 102.4 C 407.7 104.9 407.8 107.5 407.7 110.0 C 407.8 120.8 407.7 131.6 407.8 142.4 C 402.9 142.6 397.9 142.5 393.0 142.5 C 393.0 125.9 393.0 109.3 393.0 92.8 C 398.0 92.7 403.0 92.7 408.0 92.8 C 408.0 94.2 408.0 95.7 408.0 97.2 Z" />
<path fill="#ffff99" stroke="#ffff99" stroke-width="0.09375" d=" M 467.9 96.5 C 470.7 94.0 474.0 91.6 478.0 92.2 C 482.7 92.1 487.1 96.1 487.0 100.9 C 487.0 111.6 487.0 122.4 487.0 133.1 C 487.0 137.2 485.2 141.8 480.8 142.9 C 475.9 145.0 471.1 142.0 467.5 138.8 C 467.5 142.3 467.5 145.9 467.5 149.5 C 462.4 149.5 457.3 149.6 452.2 149.4 C 452.3 130.5 452.2 111.7 452.3 92.8 C 457.4 92.7 462.5 92.7 467.6 92.8 C 467.7 93.7 467.8 95.6 467.9 96.5 Z" />
<path fill="#ffff99" stroke="#ffff99" stroke-width="0.09375" d=" M 332.0 92.8 C 337.2 92.7 342.3 92.7 347.5 92.8 C 347.5 108.5 347.5 124.3 347.5 140.0 C 347.7 144.1 344.9 148.2 340.9 149.1 C 336.8 149.8 332.6 149.4 328.5 149.5 C 328.5 147.0 328.5 144.5 328.5 142.0 C 329.7 141.6 330.8 141.2 331.9 140.8 C 332.1 124.8 331.9 108.8 332.0 92.8 Z" />
<path fill="#ffff99" stroke="#ffff99" stroke-width="0.09375" d=" M 352.8 92.8 C 357.8 92.7 362.9 92.7 368.0 92.8 C 368.1 106.6 367.7 120.4 368.3 134.2 C 369.6 134.3 371.0 134.4 372.3 134.5 C 372.7 120.6 372.4 106.7 372.5 92.9 C 377.6 92.7 382.7 92.7 387.8 92.8 C 387.8 109.3 387.7 125.9 387.8 142.4 C 382.9 142.6 377.9 142.5 373.0 142.5 C 372.8 141.9 372.3 140.6 372.0 139.9 C 368.0 143.9 361.1 144.9 356.5 141.4 C 354.6 139.8 353.6 137.3 353.1 134.9 C 352.5 120.9 352.8 106.8 352.8 92.8 Z" />
<path fill="#010101" stroke="#010101" stroke-width="0.09375" d=" M 107.3 98.8 C 108.6 98.7 109.8 98.7 111.1 98.7 C 111.2 109.8 111.6 121.0 110.9 132.1 C 109.7 132.1 108.6 132.1 107.4 132.1 C 106.3 121.0 106.5 109.9 107.3 98.8 Z" />
<path fill="#010101" stroke="#010101" stroke-width="0.09375" d=" M 147.2 98.8 C 148.4 98.7 149.6 98.7 150.9 98.7 C 151.0 109.8 151.2 121.0 150.8 132.1 C 149.6 132.1 148.4 132.1 147.3 132.0 C 146.2 125.7 146.6 119.3 146.5 113.0 C 146.4 108.3 146.5 103.5 147.2 98.8 Z" />
<path fill="#010101" stroke="#010101" stroke-width="0.09375" d=" M 468.1 101.2 C 469.3 101.1 470.5 101.1 471.8 101.1 C 472.2 112.2 472.0 123.3 471.9 134.4 C 470.5 134.3 469.2 134.3 467.9 134.3 C 467.4 123.3 467.0 112.2 468.1 101.2 Z" />
<path fill="#ff0140" stroke="#ff0140" stroke-width="0.09375" d=" M 17.3 107.8 C 22.4 107.3 27.8 107.9 32.1 110.9 C 35.5 116.8 40.0 121.8 43.1 127.9 C 46.2 131.4 44.7 136.3 45.0 140.5 C 42.9 140.2 40.5 140.7 38.9 139.1 C 35.3 135.7 31.6 132.2 29.2 127.8 C 25.3 121.1 21.0 114.6 17.3 107.8 Z" />
<path fill="#99cc67" stroke="#99cc67" stroke-width="0.09375" d=" M 612.5 154.5 C 634.6 141.6 653.8 124.5 673.8 108.8 C 677.6 114.4 681.2 120.1 683.6 126.5 C 690.1 143.0 689.8 161.8 683.3 178.2 C 679.5 182.1 675.0 185.2 670.9 188.8 C 672.9 189.0 674.9 189.2 676.9 189.4 C 672.9 197.7 665.8 204.1 658.4 209.4 C 650.7 214.9 641.7 218.2 632.7 220.9 C 615.8 224.4 597.3 222.5 582.1 213.9 C 564.4 204.2 553.8 185.2 549.6 166.0 C 563.1 165.2 576.5 163.1 590.0 161.9 C 598.1 161.6 605.2 157.3 612.5 154.5 Z" />
<path fill="#679901" stroke="#679901" stroke-width="0.09375" d=" M 533.1 113.1 C 538.1 110.9 543.7 110.1 549.1 111.0 C 548.3 115.3 547.0 119.5 545.7 123.6 C 535.2 124.7 524.6 124.9 514.0 124.7 C 519.3 119.3 526.2 116.0 533.1 113.1 Z" />
<path fill="#ff0140" stroke="#ff0140" stroke-width="0.09375" d=" M 173.5 131.9 C 183.3 131.4 193.2 132.2 203.0 131.9 C 226.3 131.3 249.6 132.2 272.8 131.8 C 274.2 134.4 275.6 137.8 279.0 137.9 C 285.0 138.1 291.0 138.1 297.0 137.9 C 300.3 137.8 301.8 134.6 303.2 132.1 C 310.6 131.9 318.0 131.5 325.3 131.9 C 324.6 135.6 322.1 138.6 321.6 142.3 C 292.7 142.7 263.9 142.4 235.0 142.5 C 213.6 142.4 192.2 142.6 170.9 142.4 C 172.2 139.0 173.2 135.5 173.5 131.9 Z" />
<path fill="#ffffff" stroke="#ffffff" stroke-width="0.09375" d=" M 466.0 166.5 C 479.0 167.0 492.2 166.2 505.2 166.9 C 508.0 169.7 510.4 173.0 513.0 176.0 C 514.5 177.7 514.1 180.1 514.6 182.2 C 511.3 184.1 508.4 180.6 505.3 179.8 C 498.6 177.8 492.7 173.7 485.8 172.0 C 479.2 170.2 472.6 168.3 466.0 166.5 Z" />
<path fill="#679901" stroke="#679901" stroke-width="0.09375" d=" M 517.9 166.6 C 524.1 166.3 530.4 166.2 536.7 166.2 C 536.5 174.4 542.4 180.7 547.9 186.1 C 550.7 188.9 552.2 193.7 550.1 197.2 C 540.8 205.0 529.6 210.2 519.0 216.0 C 512.9 219.4 506.1 221.1 499.7 223.7 C 494.4 225.7 489.3 228.3 483.8 229.9 C 486.4 226.0 492.9 224.5 492.7 219.1 C 491.2 213.1 485.5 209.5 480.9 205.9 C 486.7 203.8 492.9 202.7 498.6 200.4 C 493.3 193.7 487.5 187.5 482.2 180.8 C 485.5 181.6 488.6 182.9 491.6 184.4 C 496.4 186.8 501.6 188.3 506.2 190.8 C 508.1 191.7 509.9 192.9 512.0 193.2 C 516.4 191.9 520.4 189.6 524.6 187.7 C 524.0 182.9 523.8 178.0 522.6 173.4 C 521.2 171.0 519.4 168.9 517.9 166.6 Z" />
<path fill="#010101" stroke="#010101" stroke-width="0.09375" d=" M 141.3 180.3 C 149.0 178.3 156.2 186.5 154.8 193.9 C 153.9 199.5 148.8 204.3 143.1 204.0 C 136.8 203.6 131.7 197.4 132.3 191.1 C 132.8 186.1 136.3 181.5 141.3 180.3 Z" />
<path fill="#ffffff" stroke="#ffffff" stroke-width="0.09375" d=" M 141.4 182.5 C 148.3 180.5 154.4 188.1 152.4 194.6 C 151.3 201.1 142.3 204.2 137.6 199.4 C 132.1 194.7 134.3 184.2 141.4 182.5 Z" />
<path fill="#010101" stroke="#010101" stroke-width="0.09375" d=" M 42.7 184.9 C 43.4 185.0 44.9 185.1 45.6 185.2 C 45.6 185.8 45.5 187.0 45.5 187.7 C 44.9 187.7 43.5 187.8 42.9 187.8 C 42.8 187.1 42.8 185.6 42.7 184.9 Z" />
<path fill="#010101" stroke="#010101" stroke-width="0.09375" d=" M 48.5 185.0 C 49.3 185.0 50.7 185.0 51.5 185.0 C 51.6 188.5 51.3 192.1 51.6 195.6 C 51.9 197.9 55.6 198.6 57.0 196.9 C 57.5 192.9 57.2 189.0 57.2 185.0 C 58.0 185.0 59.5 185.0 60.2 185.0 C 60.1 189.2 60.6 193.5 59.9 197.7 C 57.6 201.8 49.0 201.4 48.8 196.0 C 48.4 192.3 48.5 188.7 48.5 185.0 Z" />
<path fill="#010101" stroke="#010101" stroke-width="0.09375" d=" M 63.5 185.0 C 65.0 185.0 66.4 185.0 67.9 185.0 C 68.8 188.4 69.6 191.8 70.6 195.2 C 71.6 191.9 72.5 188.5 73.3 185.1 C 74.8 185.0 76.3 185.0 77.7 185.0 C 77.8 190.0 77.7 195.0 77.8 200.0 C 77.1 200.0 75.7 200.0 75.0 200.0 C 75.0 196.6 75.1 193.1 74.8 189.6 C 73.8 193.0 73.1 196.6 72.2 200.0 C 71.4 200.0 69.9 200.0 69.1 200.0 C 68.1 196.2 67.4 192.4 66.3 188.7 C 66.2 192.5 66.3 196.2 66.2 200.0 C 65.6 200.0 64.2 200.0 63.5 200.0 C 63.5 195.0 63.5 190.0 63.5 185.0 Z" />
<path fill="#010101" stroke="#010101" stroke-width="0.09375" d=" M 80.8 185.0 C 81.4 185.0 82.8 185.0 83.5 185.0 C 83.5 186.6 83.5 188.2 83.4 189.8 C 85.3 189.5 87.5 188.3 89.2 189.7 C 92.0 191.6 91.7 195.7 90.4 198.3 C 88.2 202.0 84.0 198.7 80.8 200.0 C 80.7 195.0 80.8 190.0 80.8 185.0 Z" />
<path fill="#010101" stroke="#010101" stroke-width="0.09375" d=" M 93.5 185.2 C 94.5 185.2 95.5 185.2 96.5 185.2 C 96.5 189.3 96.5 193.4 96.5 197.5 C 99.0 197.5 101.4 197.5 103.9 197.5 C 103.9 198.1 104.0 199.4 104.1 200.0 C 100.5 200.0 97.0 200.0 93.5 200.0 C 93.5 195.1 93.5 190.2 93.5 185.2 Z" />
<path fill="#010101" stroke="#010101" stroke-width="0.09375" d=" M 168.5 184.7 C 169.0 184.9 169.9 185.3 170.4 185.5 C 172.6 190.3 174.4 195.3 176.3 200.3 C 173.4 200.5 173.3 197.3 172.3 195.4 C 170.3 195.5 168.3 195.5 166.3 195.6 C 165.5 197.4 165.4 200.4 162.7 200.3 C 164.4 195.0 166.6 189.9 168.5 184.7 Z" />
<path fill="#010101" stroke="#010101" stroke-width="0.09375" d=" M 196.0 185.0 C 196.5 185.0 197.5 185.0 198.0 185.0 C 198.0 189.9 198.0 194.9 198.0 199.8 C 195.6 199.7 192.8 200.9 190.6 199.5 C 188.4 197.0 187.8 192.7 190.2 190.1 C 191.8 188.5 194.1 189.1 196.0 189.6 C 196.0 188.1 196.0 186.5 196.0 185.0 Z" />
<path fill="#010101" stroke="#010101" stroke-width="0.09375" d=" M 240.0 185.0 C 240.8 185.0 242.4 185.0 243.2 185.0 C 244.7 189.1 246.0 193.3 247.5 197.5 C 249.4 193.5 250.1 189.1 252.1 185.1 C 252.7 185.1 253.8 184.9 254.4 184.8 C 254.5 190.0 254.7 195.2 254.3 200.4 L 252.9 199.9 C 251.9 196.3 252.8 192.3 252.4 188.6 C 250.9 192.3 249.7 196.2 248.5 200.1 C 248.0 200.0 246.9 199.7 246.4 199.6 C 244.9 195.6 243.7 191.5 242.1 187.5 C 241.9 191.7 242.0 195.9 242.0 200.0 C 241.5 200.0 240.5 200.0 240.0 200.0 C 240.0 195.0 240.0 190.0 240.0 185.0 Z" />
<path fill="#010101" stroke="#010101" stroke-width="0.09375" d=" M 266.6 184.7 C 267.1 184.9 268.1 185.1 268.6 185.3 C 270.4 189.4 271.7 193.7 273.3 197.9 C 275.1 193.7 276.3 189.3 278.3 185.2 C 278.8 185.1 279.9 184.9 280.4 184.8 C 278.6 189.9 276.4 194.8 274.5 199.8 C 274.0 199.9 272.9 200.0 272.3 200.0 C 270.5 194.9 268.3 189.9 266.6 184.7 Z" />
<path fill="#010101" stroke="#010101" stroke-width="0.09375" d=" M 293.3 185.2 C 294.9 184.7 295.4 185.3 294.9 187.0 C 293.3 187.5 292.8 186.9 293.3 185.2 Z" />
<path fill="#010101" stroke="#010101" stroke-width="0.09375" d=" M 309.6 185.4 C 310.0 185.2 310.8 184.8 311.2 184.6 C 311.2 186.4 311.2 188.1 311.1 189.8 C 313.2 189.3 316.2 188.0 317.6 190.4 C 318.4 193.6 317.9 197.0 317.9 200.3 C 317.5 200.2 316.7 199.8 316.3 199.7 C 316.1 196.7 316.3 193.8 316.1 190.9 C 314.7 190.8 313.3 190.8 311.9 190.8 C 311.2 194.0 311.2 197.2 311.1 200.4 C 310.8 200.2 310.0 199.8 309.6 199.6 C 309.4 194.9 309.4 190.1 309.6 185.4 Z" />
<path fill="#010101" stroke="#010101" stroke-width="0.09375" d=" M 332.0 190.0 C 331.6 184.7 339.8 183.2 341.4 188.1 C 342.1 192.7 336.9 194.9 334.4 197.9 C 337.1 198.1 340.0 197.4 342.4 199.0 C 339.0 200.9 335.1 199.8 331.4 199.9 C 332.5 195.0 338.5 193.7 339.6 189.0 C 338.4 184.4 334.0 188.0 332.0 190.0 Z" />
<path fill="#010101" stroke="#010101" stroke-width="0.09375" d=" M 346.5 185.4 C 348.9 184.7 352.0 185.5 352.6 188.2 C 353.6 192.0 354.2 197.2 350.5 199.7 C 348.2 201.3 344.6 199.6 344.1 196.8 C 343.5 193.0 342.9 188.0 346.5 185.4 Z" />
<path fill="#010101" stroke="#010101" stroke-width="0.09375" d=" M 358.4 185.4 C 360.4 184.9 362.7 185.3 363.8 187.1 C 365.1 189.5 364.8 192.3 364.7 194.9 C 364.6 197.8 362.2 201.1 359.1 200.2 C 356.1 199.8 355.2 196.5 355.2 194.0 C 355.1 190.9 355.0 186.7 358.4 185.4 Z" />
<path fill="#010101" stroke="#010101" stroke-width="0.09375" d=" M 366.7 189.4 C 367.1 186.3 370.3 184.2 373.3 185.5 C 376.1 186.4 375.7 189.8 374.5 191.8 C 375.3 193.1 376.5 194.3 376.3 195.9 C 376.3 199.3 372.2 201.3 369.4 199.9 C 367.6 199.2 367.1 197.2 366.4 195.7 C 368.5 195.7 369.4 197.5 370.6 199.0 C 373.2 198.9 375.1 196.8 374.5 194.1 C 373.0 193.4 371.5 192.8 370.1 192.1 C 371.4 191.4 372.8 190.8 373.9 189.7 C 374.0 188.2 373.0 186.3 371.1 186.7 C 369.6 187.6 368.3 188.7 366.7 189.4 Z" />
<path fill="#010101" stroke="#010101" stroke-width="0.09375" d=" M 385.2 189.9 C 385.1 185.1 391.8 183.5 394.2 187.2 C 396.0 192.2 390.3 194.9 387.4 198.0 C 390.1 198.1 393.0 197.4 395.4 199.0 C 392.1 200.8 388.2 199.8 384.6 199.9 C 385.8 195.7 390.1 193.9 392.5 190.5 C 393.8 188.2 391.4 186.5 389.2 186.5 C 387.9 187.6 386.7 188.8 385.2 189.9 Z" />
<path fill="#010101" stroke="#010101" stroke-width="0.09375" d=" M 399.5 185.6 C 401.6 184.7 404.6 185.2 405.5 187.5 C 407.0 191.0 407.1 195.6 404.8 198.8 C 402.7 201.7 397.8 200.2 397.3 196.7 C 396.9 193.0 396.0 187.9 399.5 185.6 Z" />
<path fill="#010101" stroke="#010101" stroke-width="0.09375" d=" M 411.4 185.3 C 413.6 184.9 416.4 185.4 417.2 187.7 C 418.3 191.1 418.7 195.5 416.6 198.6 C 414.7 201.7 409.4 200.4 408.9 196.9 C 408.2 193.0 407.6 187.8 411.4 185.3 Z" />
<path fill="#010101" stroke="#010101" stroke-width="0.09375" d=" M 421.6 185.3 C 423.9 185.2 426.3 185.2 428.7 185.3 C 428.8 185.7 429.2 186.5 429.3 186.9 C 427.2 187.0 425.2 187.0 423.1 187.0 C 422.9 187.8 422.6 189.5 422.5 190.4 C 424.3 190.5 426.4 189.8 427.9 191.2 C 431.7 193.9 428.8 201.2 424.0 200.3 C 421.4 200.3 420.2 197.7 419.7 195.5 C 421.9 196.3 423.0 199.4 425.6 198.7 C 427.7 197.9 428.2 195.5 427.6 193.5 C 425.8 190.7 422.5 192.5 420.1 193.2 C 420.6 190.5 421.1 187.9 421.6 185.3 Z" />
<path fill="#010101" stroke="#010101" stroke-width="0.09375" d=" M 143.2 197.7 C 137.1 197.2 137.7 185.8 144.0 186.7 C 146.4 186.4 147.8 188.5 148.3 190.5 C 146.2 189.8 144.1 187.1 141.8 188.8 C 140.3 190.9 140.2 194.3 142.3 196.1 C 144.7 197.1 146.3 194.3 148.3 193.4 C 148.1 196.1 146.0 198.5 143.2 197.7 Z" />
<path fill="#ffffff" stroke="#ffffff" stroke-width="0.09375" d=" M 167.0 193.8 C 167.7 191.5 168.5 189.2 169.4 186.9 C 170.1 189.2 171.0 191.4 171.8 193.7 C 170.2 193.7 168.6 193.8 167.0 193.8 Z" />
<path fill="#ffffff" stroke="#ffffff" stroke-width="0.09375" d=" M 346.9 186.5 C 348.6 186.8 350.9 187.1 351.2 189.2 C 351.6 192.3 352.3 196.3 349.6 198.6 C 348.0 199.2 346.4 198.5 345.9 196.8 C 345.0 193.4 345.3 189.7 346.9 186.5 Z" />
<path fill="#ffffff" stroke="#ffffff" stroke-width="0.09375" d=" M 357.6 187.6 C 358.2 187.3 359.6 186.7 360.2 186.4 C 363.8 188.2 363.1 192.5 362.9 195.9 C 362.7 198.5 359.1 200.0 357.7 197.4 C 356.8 194.2 357.3 190.8 357.6 187.6 Z" />
<path fill="#ffffff" stroke="#ffffff" stroke-width="0.09375" d=" M 400.0 186.6 C 401.7 186.7 404.0 186.9 404.3 189.1 C 404.5 191.9 405.0 195.0 403.8 197.6 C 402.7 199.5 399.5 198.9 399.1 196.8 C 398.4 193.5 398.4 189.8 400.0 186.6 Z" />
<path fill="#ffffff" stroke="#ffffff" stroke-width="0.09375" d=" M 411.4 187.2 C 413.4 185.6 416.1 187.8 416.0 190.0 C 416.0 192.5 416.4 195.1 415.4 197.5 C 414.3 199.6 410.9 199.0 410.6 196.6 C 410.0 193.5 409.8 190.0 411.4 187.2 Z" />
<path fill="#010101" stroke="#010101" stroke-width="0.09375" d=" M 42.8 189.0 C 43.4 189.0 44.8 189.0 45.5 189.0 C 45.4 193.6 45.8 198.3 45.3 202.9 C 44.6 204.8 42.1 204.0 40.6 204.3 C 43.9 199.8 42.5 194.2 42.8 189.0 Z" />
<path fill="#010101" stroke="#010101" stroke-width="0.09375" d=" M 109.2 200.2 C 103.8 198.8 104.3 189.2 110.1 189.0 C 113.5 188.5 115.5 192.2 115.7 195.1 C 113.1 195.2 110.5 195.2 107.8 195.5 C 108.5 196.3 109.0 197.5 110.0 198.0 C 111.8 197.6 113.7 197.1 115.5 196.8 C 114.5 199.4 111.8 200.9 109.2 200.2 Z" />
<path fill="#010101" stroke="#010101" stroke-width="0.09375" d=" M 177.7 189.2 C 180.5 189.9 183.7 188.0 186.0 190.3 C 186.9 193.5 186.4 197.0 186.4 200.3 C 186.0 200.2 185.0 199.8 184.6 199.7 C 184.4 196.7 184.6 193.6 184.3 190.6 C 182.1 190.5 179.2 191.3 179.6 194.1 C 179.0 196.2 180.7 199.7 177.8 200.4 C 177.7 196.7 177.8 192.9 177.7 189.2 Z" />
<path fill="#010101" stroke="#010101" stroke-width="0.09375" d=" M 201.0 189.2 C 202.9 189.5 204.9 189.2 206.8 189.2 C 206.2 190.7 204.7 191.2 203.2 191.5 C 202.8 194.2 202.8 197.0 202.6 199.7 C 202.2 199.9 201.5 200.2 201.1 200.3 C 201.0 196.6 201.0 192.9 201.0 189.2 Z" />
<path fill="#010101" stroke="#010101" stroke-width="0.09375" d=" M 210.2 199.9 C 205.4 197.9 206.4 188.9 212.1 189.0 C 215.4 188.6 217.4 191.9 217.2 194.9 C 214.3 195.0 211.5 195.0 208.7 195.2 C 209.4 196.4 209.9 198.1 211.3 198.7 C 213.6 199.1 215.3 197.1 217.3 196.5 C 216.6 199.7 213.1 201.1 210.2 199.9 Z" />
<path fill="#010101" stroke="#010101" stroke-width="0.09375" d=" M 218.1 188.6 C 221.5 189.8 221.0 194.5 222.5 197.3 C 223.2 194.6 223.9 191.9 224.6 189.1 C 225.1 189.1 226.1 189.1 226.7 189.1 C 227.2 191.8 227.8 194.6 228.6 197.4 C 229.7 194.8 230.2 192.0 231.2 189.3 C 231.6 189.1 232.5 188.8 232.9 188.6 C 232.0 192.5 230.7 196.2 229.7 200.0 C 229.1 200.0 228.1 199.9 227.5 199.9 C 226.9 197.2 226.1 194.6 225.4 192.0 C 224.8 194.6 224.1 197.2 223.5 199.9 C 223.0 199.9 221.9 200.0 221.3 200.0 C 220.3 196.2 219.0 192.5 218.1 188.6 Z" />
<path fill="#010101" stroke="#010101" stroke-width="0.09375" d=" M 261.1 200.2 C 255.5 199.5 255.5 189.6 261.1 189.0 C 263.7 188.5 265.6 190.5 266.3 192.7 C 264.3 192.1 262.5 189.7 260.2 190.8 C 258.1 192.6 258.3 196.1 259.8 198.2 C 262.4 200.2 264.4 196.9 266.4 195.7 C 266.1 198.4 263.9 200.9 261.1 200.2 Z" />
<path fill="#010101" stroke="#010101" stroke-width="0.09375" d=" M 281.4 192.2 C 282.1 188.7 287.3 187.8 289.6 190.4 C 290.7 191.6 290.8 193.4 291.3 194.9 C 288.4 195.0 285.5 195.0 282.6 195.1 C 283.2 196.8 284.0 198.8 286.0 198.9 C 287.8 198.2 289.5 197.1 291.3 196.5 C 290.3 199.7 286.4 201.3 283.4 199.7 C 280.7 198.2 281.1 194.8 281.4 192.2 Z" />
<path fill="#010101" stroke="#010101" stroke-width="0.09375" d=" M 293.3 189.3 C 293.7 189.2 294.5 188.8 294.9 188.7 C 295.0 192.6 295.0 196.4 294.9 200.3 C 294.5 200.2 293.7 199.8 293.3 199.7 C 293.2 196.2 293.2 192.8 293.3 189.3 Z" />
<path fill="#010101" stroke="#010101" stroke-width="0.09375" d=" M 298.4 190.4 C 300.5 187.9 303.9 189.8 306.5 189.3 C 306.3 193.4 306.9 197.7 306.2 201.8 C 305.2 205.3 301.0 204.2 298.4 203.8 C 298.2 203.0 297.8 201.5 297.6 200.7 C 299.3 201.4 300.8 203.2 302.8 202.7 C 304.5 202.6 304.6 200.6 305.3 199.4 C 303.4 199.6 301.3 200.5 299.5 199.6 C 296.8 197.5 296.4 193.0 298.4 190.4 Z" />
<path fill="#679901" stroke="#679901" stroke-width="0.09375" d=" M 676.9 189.4 C 681.7 189.9 686.6 190.3 691.4 191.0 C 681.4 201.1 668.9 208.3 656.1 214.1 C 648.6 217.2 640.9 220.3 632.7 220.9 C 641.7 218.2 650.7 214.9 658.4 209.4 C 665.8 204.1 672.9 197.7 676.9 189.4 Z" />
<path fill="#ffffff" stroke="#ffffff" stroke-width="0.09375" d=" M 85.3 191.3 C 89.5 190.2 89.4 199.2 85.2 198.0 C 83.1 196.5 83.0 192.5 85.3 191.3 Z" />
<path fill="#ffffff" stroke="#ffffff" stroke-width="0.09375" d=" M 109.4 191.3 C 110.0 191.3 111.1 191.3 111.6 191.3 C 112.1 192.0 112.6 192.7 113.1 193.4 C 111.4 193.5 109.8 193.5 108.2 193.5 C 108.6 192.7 109.0 192.0 109.4 191.3 Z" />
<path fill="#ffffff" stroke="#ffffff" stroke-width="0.09375" d=" M 191.4 191.3 C 196.1 187.5 198.6 198.0 193.9 198.8 C 190.0 199.1 190.1 193.7 191.4 191.3 Z" />
<path fill="#ffffff" stroke="#ffffff" stroke-width="0.09375" d=" M 208.8 193.4 C 209.4 192.7 210.5 191.3 211.0 190.6 C 213.2 189.7 214.7 191.8 215.6 193.4 C 213.4 193.5 211.1 193.5 208.8 193.4 Z" />
<path fill="#ffffff" stroke="#ffffff" stroke-width="0.09375" d=" M 282.5 193.4 C 283.5 192.2 284.2 190.2 286.0 190.5 C 287.8 190.2 288.5 192.3 289.5 193.4 C 287.2 193.5 284.9 193.5 282.5 193.4 Z" />
<path fill="#ffffff" stroke="#ffffff" stroke-width="0.09375" d=" M 300.3 190.9 C 305.3 188.1 306.8 198.2 302.0 198.6 C 298.4 198.3 298.1 193.0 300.3 190.9 Z" />
<path fill="#010101" stroke="#010101" stroke-width="0.09375" d=" M 378.4 194.4 C 379.6 193.7 381.4 193.7 382.6 194.4 C 382.4 195.9 378.6 195.9 378.4 194.4 Z" />
<path fill="#ffffff" stroke="#ffffff" stroke-width="0.09375" d=" M 692.1 200.1 C 693.5 199.0 694.8 197.9 696.2 196.7 C 696.3 199.7 696.3 202.7 696.2 205.6 C 694.7 203.8 693.4 202.0 692.1 200.1 Z" />
<path fill="#010101" stroke="#010101" stroke-width="0.09375" d=" M 321.5 197.8 C 322.0 197.9 323.2 198.2 323.8 198.3 C 323.6 200.1 323.0 201.9 322.0 203.5 C 321.9 201.5 321.7 199.6 321.5 197.8 Z" />
<path fill="#679901" stroke="#679901" stroke-width="0.09375" d=" M 637.0 227.6 C 654.3 224.1 670.3 215.9 684.8 205.9 C 687.0 209.1 689.2 212.3 691.9 215.1 C 695.7 219.0 698.4 223.8 702.4 227.6 C 707.0 232.1 710.1 238.5 709.4 245.0 C 709.7 249.5 706.3 252.7 704.1 256.1 C 700.1 262.3 694.5 267.3 688.7 271.7 C 685.4 273.6 682.0 276.3 678.0 275.9 C 671.6 275.4 665.3 274.8 659.0 274.1 C 653.6 273.4 649.5 269.8 645.0 267.1 C 638.3 263.7 630.7 262.3 623.2 261.4 C 620.9 264.7 618.3 267.9 616.6 271.6 C 615.4 273.7 616.3 276.1 616.8 278.2 C 618.3 284.0 618.6 290.1 618.8 296.1 C 617.5 293.7 616.3 291.3 615.0 288.9 C 609.2 294.0 602.8 298.5 598.4 304.9 C 597.3 299.7 592.7 295.9 587.9 294.3 C 582.7 294.4 579.1 298.9 574.8 301.1 C 576.5 291.8 582.6 284.2 585.2 275.2 C 590.6 261.9 595.9 248.5 602.9 235.9 C 604.5 232.0 609.4 231.7 613.0 231.8 C 620.2 232.1 624.0 239.3 630.3 241.6 C 637.1 244.1 643.5 248.7 651.0 248.3 C 653.3 248.3 655.6 248.2 657.9 248.1 C 658.7 245.2 659.4 242.2 659.9 239.3 C 652.3 235.3 644.4 231.9 637.0 227.6 Z" />
</svg>
