<?xml version="1.0" encoding="UTF-8" standalone="no"?>
<!-- Created with Inkscape (http://www.inkscape.org/) -->

<svg
   xmlns:dc="http://purl.org/dc/elements/1.1/"
   xmlns:cc="http://creativecommons.org/ns#"
   xmlns:rdf="http://www.w3.org/1999/02/22-rdf-syntax-ns#"
   xmlns:svg="http://www.w3.org/2000/svg"
   xmlns="http://www.w3.org/2000/svg"
   xmlns:sodipodi="http://sodipodi.sourceforge.net/DTD/sodipodi-0.dtd"
   xmlns:inkscape="http://www.inkscape.org/namespaces/inkscape"
   width="744.09448819"
   height="1052.3622047"
   id="svg2"
   version="1.1"
   inkscape:version="0.47 r22583"
   sodipodi:docname="New document 1">
  <defs
     id="defs4">
    <inkscape:perspective
       sodipodi:type="inkscape:persp3d"
       inkscape:vp_x="0 : 526.18109 : 1"
       inkscape:vp_y="0 : 1000 : 0"
       inkscape:vp_z="744.09448 : 526.18109 : 1"
       inkscape:persp3d-origin="372.04724 : 350.78739 : 1"
       id="perspective10" />
    <clipPath
       id="clipPath2834"
       clipPathUnits="userSpaceOnUse">
      <path
         id="path2836"
         d="M 0,561.645 0,0 l 2251.83,0 0,561.645 -2251.83,0 z" />
    </clipPath>
    <inkscape:perspective
       id="perspective2824"
       inkscape:persp3d-origin="0.5 : 0.33333333 : 1"
       inkscape:vp_z="1 : 0.5 : 1"
       inkscape:vp_y="0 : 1000 : 0"
       inkscape:vp_x="0 : 0.5 : 1"
       sodipodi:type="inkscape:persp3d" />
  </defs>
  <sodipodi:namedview
     id="base"
     pagecolor="#ffffff"
     bordercolor="#666666"
     borderopacity="1.0"
     inkscape:pageopacity="0.0"
     inkscape:pageshadow="2"
     inkscape:zoom="1"
     inkscape:cx="280.73434"
     inkscape:cy="489.78066"
     inkscape:document-units="px"
     inkscape:current-layer="layer1"
     showgrid="false"
     inkscape:window-width="1680"
     inkscape:window-height="1023"
     inkscape:window-x="-9"
     inkscape:window-y="-9"
     inkscape:window-maximized="1" />
  <metadata
     id="metadata7">
    <rdf:RDF>
      <cc:Work
         rdf:about="">
        <dc:format>image/svg+xml</dc:format>
        <dc:type
           rdf:resource="http://purl.org/dc/dcmitype/StillImage" />
        <dc:title></dc:title>
      </cc:Work>
    </rdf:RDF>
  </metadata>
  <g
     inkscape:label="Layer 1"
     inkscape:groupmode="layer"
     id="layer1">
    <path
       id="path2838"
       style="fill:#52aee5;fill-opacity:1;fill-rule:nonzero;stroke:none"
       d="m 265.88076,508.777 c -1.56151,0 -2.82576,-1.26462 -2.82576,-2.82612 0,-1.5625 1.26425,-2.82675 2.82576,-2.82675 1.56049,0 2.82612,1.26425 2.82612,2.82675 0,1.5615 -1.26563,2.82612 -2.82613,2.82612 z m -22.92823,13.15037 c -1.56201,0 -2.82569,-1.26462 -2.82569,-2.82712 0,-1.5625 1.26368,-2.82712 2.82569,-2.82712 1.56102,0 2.82616,1.26462 2.82616,2.82712 0,1.5625 -1.26514,2.82712 -2.82616,2.82712 z m 0,26.524 c -1.56201,0 -2.82569,-1.26474 -2.82569,-2.82475 0,-1.56499 1.26368,-2.82962 2.82569,-2.82962 1.56102,0 2.82616,1.26463 2.82616,2.82962 0,1.56001 -1.26514,2.82475 -2.82616,2.82475 z m 22.92823,-51.19199 c -4.80076,0 -8.69288,3.89025 -8.69288,8.6915 0,0.77725 0.11225,1.52824 0.30462,2.2465 l -8.34125,4.8145 c -1.57712,-1.60451 -3.77002,-2.60251 -6.19872,-2.60251 -4.8003,0 -8.6919,3.88963 -8.6919,8.69088 0,3.94138 2.62402,7.26563 6.21972,8.33013 l 0,9.86612 c -3.5957,1.0645 -6.21972,4.38725 -6.21972,8.33012 0,4.79975 3.8916,8.68901 8.6919,8.68901 4.80122,0 8.69135,-3.88926 8.69135,-8.68901 0,-4.10399 -2.84463,-7.53412 -6.6684,-8.44724 l 0,-9.63426 c 3.82377,-0.91212 6.6684,-4.34087 6.6684,-8.44487 0,-0.751 -0.10488,-1.47612 -0.28413,-2.17187 l 8.37213,-4.8345 c 1.57312,1.57425 3.7475,2.54837 6.14888,2.54837 4.80075,0 8.69187,-3.89062 8.69187,-8.69137 0,-4.80125 -3.89112,-8.6915 -8.69188,-8.6915" />
    <path
       id="path2840"
       style="fill:#a9bc0d;fill-opacity:1;fill-rule:nonzero;stroke:none"
       d="m 288.808,548.45137 c -1.561,0 -2.82575,-1.26474 -2.82575,-2.82475 0,-1.56499 1.26475,-2.82962 2.82575,-2.82962 1.5615,0 2.82663,1.26463 2.82663,2.82962 0,1.56001 -1.26513,2.82475 -2.82663,2.82475 z m -16.855,4.11126 c -1.05125,-1.02775 -2.36274,-1.78463 -3.82512,-2.17525 l 0,-9.63626 c 3.70887,-0.99362 6.44475,-4.36524 6.44475,-8.38912 0,-0.77787 -0.11175,-1.52838 -0.30413,-2.24612 l 8.40813,-4.856 c 1.061,1.05474 2.3955,1.82962 3.88375,2.22762 l 0,9.7505 c -3.70888,0.99113 -6.44375,4.36513 -6.44375,8.38862 0,0.71538 0.0956,1.40625 0.25875,2.07276 l -8.42238,4.86325 z m -6.07224,9.03811 c -1.56151,0 -2.82576,-1.26465 -2.82576,-2.82715 0,-1.56005 1.26425,-2.8247 2.82576,-2.8247 1.56049,0 2.82612,1.26465 2.82612,2.8247 0,1.5625 -1.26563,2.82715 -2.82613,2.82715 z m 0,-32.06349 c 1.56049,0 2.82612,1.26325 2.82612,2.82475 0,1.563 -1.26563,2.82762 -2.82613,2.82762 -1.5615,0 -2.82575,-1.26462 -2.82575,-2.82762 0,-1.5615 1.26425,-2.82475 2.82575,-2.82475 z M 288.808,516.27313 c 1.5615,0 2.82663,1.26462 2.82663,2.82712 0,1.5625 -1.26513,2.82712 -2.82663,2.82712 -1.561,0 -2.82575,-1.26462 -2.82575,-2.82712 0,-1.5625 1.26475,-2.82712 2.82575,-2.82712 z m 2.248,20.96487 0,-9.7505 c 3.71,-0.99125 6.44438,-4.36375 6.44438,-8.38725 0,-4.80125 -3.89113,-8.69088 -8.69238,-8.69088 -4.79987,0 -8.69137,3.88963 -8.69137,8.69088 0,0.78713 0.11325,1.54537 0.309,2.26813 l -8.39738,4.851 c -1.57325,-1.57475 -3.74662,-2.54788 -6.1475,-2.54788 -4.80075,0 -8.69287,3.89063 -8.69287,8.6905 0,4.0215 2.73587,7.3955 6.44487,8.38912 l 0,9.63863 c -3.709,0.99125 -6.44487,4.36288 -6.44487,8.38384 0,4.80225 3.89212,8.69141 8.69288,8.69141 4.80075,0 8.69187,-3.88916 8.69187,-8.69141 0,-0.81299 -0.11963,-1.59668 -0.32913,-2.34375 l 8.29788,-4.79009 c 1.582,1.648 3.80175,2.67588 6.26662,2.67588 4.80125,0 8.69238,-3.88926 8.69238,-8.68901 0,-4.02349 -2.73438,-7.39749 -6.44438,-8.38862" />
    <path
       id="path2842"
       style="fill:#424a52;fill-opacity:1;fill-rule:nonzero;stroke:none"
       d="m 318.09613,526.75162 c 0,-2.24849 1.40425,-3.74512 3.3715,-3.74512 1.96737,0 3.37162,1.49663 3.37162,3.74512 l 0,17.98151 c 0,2.24849 -1.40425,3.745 -3.37162,3.745 -1.96725,0 -3.3715,-1.49651 -3.3715,-3.745 l 0,-17.98151" />
    <path
       id="path2844"
       style="fill:#424a52;fill-opacity:1;fill-rule:nonzero;stroke:none"
       d="m 330.45688,526.75162 c 0,-2.24849 1.40438,-3.74512 3.37162,-3.74512 1.73188,0 2.85738,0.935 3.09088,2.4805 1.3105,-1.82625 3.32362,-2.76375 6.50825,-2.76375 5.2915,0 9.22362,3.37162 9.22362,9.0855 l 0,12.92437 c 0,2.2485 -1.40375,3.745 -3.36962,3.745 -1.96725,0 -3.37213,-1.4965 -3.37213,-3.745 l 0,-11.755 c 0,-3.13562 -1.96675,-4.63474 -4.40137,-4.63474 -2.76313,0 -4.308,2.01275 -4.308,4.63474 l 0,11.755 c 0,2.2485 -1.40438,3.745 -3.37163,3.745 -1.96724,0 -3.37162,-1.4965 -3.37162,-3.745 l 0,-17.9815" />
    <path
       id="path2846"
       style="fill:#424a52;fill-opacity:1;fill-rule:nonzero;stroke:none"
       d="m 360.00313,529.18575 -1.49737,0 c -1.82763,0 -2.95113,-1.12312 -2.95113,-2.95075 0,-1.6845 1.26512,-2.94775 2.95113,-2.94775 l 1.49737,0 0,-4.02825 c 0,-2.24613 1.405,-3.74513 3.37125,-3.74513 1.96625,0 3.37125,1.499 3.37125,3.74513 l 0,4.02825 1.91875,0 c 1.73375,0 3.2325,0.7935 3.2325,2.94775 0,2.10838 -1.49875,2.95075 -3.2325,2.95075 l -1.91875,0 0,15.54738 c 0,2.24849 -1.405,3.745 -3.37125,3.745 -1.96625,0 -3.37125,-1.49651 -3.37125,-3.745 l 0,-15.54738" />
    <path
       id="path2848"
       style="fill:#424a52;fill-opacity:1;fill-rule:nonzero;stroke:none"
       d="m 374.00313,526.37662 c 0,-2.24849 1.78,-3.37012 3.465,-3.37012 1.78,0 3.27875,0.65425 3.27875,2.80863 l 0.0925,0 c 1.265,-1.87363 2.6225,-2.80863 4.72875,-2.80863 1.64125,0 3.27875,1.16938 3.27875,3.6035 0,2.20213 -2.01375,2.34137 -4.0275,3.27887 -2.015,0.93501 -4.0725,1.82613 -4.0725,4.49513 l 0,10.34912 c 0,2.2485 -1.40625,3.745 -3.37125,3.745 -1.9675,0 -3.3725,-1.4965 -3.3725,-3.745 l 0,-18.3565" />
    <path
       id="path2850"
       style="fill:#424a52;fill-opacity:1;fill-rule:nonzero;stroke:none"
       d="m 391.46938,526.75162 c 0,-2.24849 1.40375,-3.74512 3.37125,-3.74512 1.96625,0 3.3725,1.49663 3.3725,3.74512 l 0,17.98151 c 0,2.24849 -1.40625,3.745 -3.3725,3.745 -1.9675,0 -3.37125,-1.49651 -3.37125,-3.745 l 0,-17.98151" />
    <path
       id="path2852"
       style="fill:#424a52;fill-opacity:1;fill-rule:nonzero;stroke:none"
       d="m 403.83063,526.75162 c 0,-2.24849 1.40375,-3.74512 3.37125,-3.74512 1.73125,0 2.85625,0.935 3.09125,2.4805 1.31125,-1.82625 3.325,-2.76375 6.50625,-2.76375 5.2925,0 9.22625,3.37162 9.22625,9.0855 l 0,12.92437 c 0,2.2485 -1.40625,3.745 -3.3725,3.745 -1.965,0 -3.37125,-1.4965 -3.37125,-3.745 l 0,-11.755 c 0,-3.13562 -1.965,-4.63474 -4.39875,-4.63474 -2.76625,0 -4.31,2.01275 -4.31,4.63474 l 0,11.755 c 0,2.2485 -1.40375,3.745 -3.37125,3.745 -1.9675,0 -3.37125,-1.4965 -3.37125,-3.745 l 0,-17.9815" />
    <path
       id="path2854"
       style="fill:#424a52;fill-opacity:1;fill-rule:nonzero;stroke:none"
       d="m 445.92563,530.592 c -1.2625,0 -3.84125,-1.96787 -6.04,-1.96787 -1.21625,0 -2.295,0.56162 -2.295,1.87262 0,3.13763 11.70625,2.6685 11.70625,10.34963 0,4.49462 -3.79375,7.91262 -9.6,7.91262 -3.79125,0 -9.41125,-2.15337 -9.41125,-5.19775 0,-1.03037 1.03,-2.99812 2.9025,-2.99812 2.6225,0 3.79375,2.29737 6.9775,2.29737 2.06125,0 2.66875,-0.65675 2.66875,-1.92138 0,-3.09087 -11.70625,-2.62212 -11.70625,-10.34712 0,-4.68413 3.79375,-7.86875 9.13,-7.86875 3.325,0 8.43,1.54638 8.43,4.87162 0,1.54451 -1.17125,2.99713 -2.7625,2.99713" />
    <path
       id="path2856"
       style="fill:#424a52;fill-opacity:1;fill-rule:nonzero;stroke:none"
       d="m 464.23313,544.91863 c 5.05625,0 6.83625,-4.96338 6.83625,-9.17725 0,-4.21438 -1.78,-9.17776 -6.83625,-9.17776 -5.05625,0 -6.83625,4.96338 -6.83625,9.17776 0,4.21387 1.78,9.17725 6.83625,9.17725 z m 10.7225,1.54537 c 0,1.45263 -1.1225,2.01412 -1.91875,2.01412 -0.8425,0 -1.92125,-0.56149 -1.92125,-2.01412 l 0,-1.73088 -0.0925,0 c -1.7825,2.52676 -4.11875,3.745 -6.79,3.745 -7.02375,0 -10.9575,-6.13275 -10.9575,-12.73674 0,-6.60201 3.93375,-12.73488 10.9575,-12.73488 2.85625,0 4.87125,1.21588 6.79,3.32275 l 0.0925,0 0,-1.311 c 0,-1.45175 1.07875,-2.01175 1.92125,-2.01175 0.79625,0 1.91875,0.56 1.91875,2.01175 l 0,21.44575" />
    <path
       id="path2858"
       style="fill:#424a52;fill-opacity:1;fill-rule:nonzero;stroke:none"
       d="m 482.26063,525.20625 c 0,-1.3575 0.79625,-2.19975 2.06,-2.19975 1.2625,0 2.05875,0.84225 2.05875,2.19975 l 0,2.10688 0.095,0 c 0.9375,-1.92038 3.2325,-4.30663 5.6175,-4.30663 1.4525,0 2.295,0.935 2.295,2.10688 0,1.16949 -0.8425,1.91899 -2.575,2.24612 -2.435,0.42088 -5.4325,2.24712 -5.4325,7.07088 l 0,11.84812 c 0,1.35738 -0.79625,2.19963 -2.05875,2.19963 -1.26375,0 -2.06,-0.84225 -2.06,-2.19963 l 0,-21.07225" />
    <path
       id="path2860"
       style="fill:#424a52;fill-opacity:1;fill-rule:nonzero;stroke:none"
       d="m 509.04313,523.0065 c 4.21375,0 6.69625,1.45025 6.69625,3.13575 0,0.84225 -0.7025,1.73238 -1.6875,1.73238 -1.58875,0 -2.19875,-1.31101 -5.00875,-1.31101 -5.1025,0 -7.1175,4.96338 -7.1175,9.17776 0,4.21387 2.015,9.17725 7.1175,9.17725 2.905,0 3.6525,-1.40388 4.9625,-1.40388 0.9375,0 1.595,0.61038 1.595,1.7335 0,1.54538 -2.295,3.22987 -6.5575,3.22987 -7.58625,0 -11.23875,-6.13275 -11.23875,-12.73674 0,-6.60201 3.6525,-12.73488 11.23875,-12.73488" />
  </g>
</svg>
