<?xml version="1.0" encoding="UTF-8" standalone="no"?>
<!-- Created with Inkscape (http://www.inkscape.org/) -->

<svg
   xmlns:dc="http://purl.org/dc/elements/1.1/"
   xmlns:cc="http://creativecommons.org/ns#"
   xmlns:rdf="http://www.w3.org/1999/02/22-rdf-syntax-ns#"
   xmlns:svg="http://www.w3.org/2000/svg"
   xmlns="http://www.w3.org/2000/svg"
   xmlns:sodipodi="http://sodipodi.sourceforge.net/DTD/sodipodi-0.dtd"
   xmlns:inkscape="http://www.inkscape.org/namespaces/inkscape"
   width="85mm"
   height="54mm"
   id="svg2912"
   version="1.1"
   inkscape:version="0.47 r22583"
   sodipodi:docname="front.pdf">
  <defs
     id="defs3">
    <inkscape:perspective
       sodipodi:type="inkscape:persp3d"
       inkscape:vp_x="0 : 95.669289 : 1"
       inkscape:vp_y="0 : 1000 : 0"
       inkscape:vp_z="301.18109 : 95.669289 : 1"
       inkscape:persp3d-origin="150.59055 : 63.779526 : 1"
       id="perspective2919" />
    <inkscape:perspective
       id="perspective2835"
       inkscape:persp3d-origin="0.5 : 0.33333333 : 1"
       inkscape:vp_z="1 : 0.5 : 1"
       inkscape:vp_y="0 : 1000 : 0"
       inkscape:vp_x="0 : 0.5 : 1"
       sodipodi:type="inkscape:persp3d" />
    <inkscape:perspective
       id="perspective3000"
       inkscape:persp3d-origin="0.5 : 0.33333333 : 1"
       inkscape:vp_z="1 : 0.5 : 1"
       inkscape:vp_y="0 : 1000 : 0"
       inkscape:vp_x="0 : 0.5 : 1"
       sodipodi:type="inkscape:persp3d" />
    <inkscape:perspective
       id="perspective3036"
       inkscape:persp3d-origin="0.5 : 0.33333333 : 1"
       inkscape:vp_z="1 : 0.5 : 1"
       inkscape:vp_y="0 : 1000 : 0"
       inkscape:vp_x="0 : 0.5 : 1"
       sodipodi:type="inkscape:persp3d" />
  </defs>
  <sodipodi:namedview
     id="base"
     pagecolor="#ffffff"
     bordercolor="#666666"
     borderopacity="1.0"
     inkscape:pageopacity="0.0"
     inkscape:pageshadow="2"
     inkscape:zoom="2.7975531"
     inkscape:cx="150.59055"
     inkscape:cy="95.669289"
     inkscape:document-units="mm"
     inkscape:current-layer="layer1"
     showgrid="false"
     inkscape:window-width="1680"
     inkscape:window-height="1023"
     inkscape:window-x="1671"
     inkscape:window-y="-9"
     inkscape:window-maximized="1" />
  <metadata
     id="metadata2916">
    <rdf:RDF>
      <cc:Work
         rdf:about="">
        <dc:format>image/svg+xml</dc:format>
        <dc:type
           rdf:resource="http://purl.org/dc/dcmitype/StillImage" />
        <dc:title></dc:title>
      </cc:Work>
    </rdf:RDF>
  </metadata>
  <g
     inkscape:label="Layer 1"
     inkscape:groupmode="layer"
     id="layer1">
    <path
       id="path2838"
       style="fill:#52aee5;fill-opacity:1;fill-rule:nonzero;stroke:none"
       d="m 47.923267,61.039476 c -0.986927,0 -1.785975,-0.799282 -1.785975,-1.786202 0,-0.987552 0.799048,-1.7866 1.785975,-1.7866 0.986281,0 1.786201,0.799048 1.786201,1.7866 0,0.98692 -0.79992,1.786202 -1.786208,1.786202 z m -14.491404,8.311471 c -0.987243,0 -1.78593,-0.799282 -1.78593,-1.786834 0,-0.987552 0.798687,-1.786834 1.78593,-1.786834 0.986616,0 1.786227,0.799282 1.786227,1.786834 0,0.987552 -0.799611,1.786834 -1.786227,1.786834 z m 0,16.764054 c -0.987243,0 -1.78593,-0.79936 -1.78593,-1.785344 0,-0.98912 0.798687,-1.78841 1.78593,-1.78841 0.986616,0 1.786227,0.79929 1.786227,1.78841 0,0.985984 -0.799611,1.785344 -1.786227,1.785344 z M 47.923267,53.759957 c -3.03424,0 -5.49419,2.458767 -5.49419,5.493317 0,0.491248 0.07095,0.965899 0.19253,1.419863 l -5.271947,3.042924 c -0.996792,-1.014104 -2.382778,-1.644873 -3.917797,-1.644873 -3.033949,0 -5.49357,2.458376 -5.49357,5.492925 0,2.491083 1.658468,4.59212 3.93107,5.264919 l 0,6.235716 c -2.272602,0.672799 -3.93107,2.772889 -3.93107,5.264909 0,3.033614 2.459621,5.491754 5.49357,5.491754 3.03453,0 5.493222,-2.45814 5.493222,-5.491754 0,-2.59385 -1.797901,-4.76181 -4.214651,-5.338932 l 0,-6.089173 c 2.41675,-0.57649 4.214651,-2.743574 4.214651,-5.337439 0,-0.474657 -0.06629,-0.932957 -0.17958,-1.372694 l 5.291465,-3.055565 c 0.994264,0.994979 2.368545,1.610655 3.886297,1.610655 3.034233,0 5.493551,-2.459001 5.493551,-5.493235 0,-3.03455 -2.459318,-5.493317 -5.493558,-5.493317" />
    <path
       id="path2840"
       style="fill:#a9bc0d;fill-opacity:1;fill-rule:nonzero;stroke:none"
       d="m 62.414045,86.115001 c -0.986604,0 -1.785968,-0.79936 -1.785968,-1.785344 0,-0.98912 0.799364,-1.78841 1.785968,-1.78841 0.98692,0 1.786524,0.79929 1.786524,1.78841 0,0.985984 -0.799604,1.785344 -1.786524,1.785344 z m -10.652921,2.59845 c -0.664425,-0.64957 -1.49333,-1.12794 -2.417603,-1.37483 l 0,-6.090434 c 2.344129,-0.628 4.073297,-2.758981 4.073297,-5.302207 0,-0.491639 -0.07063,-0.965987 -0.192221,-1.419622 l 5.314218,-3.069154 c 0.670587,0.666631 1.514036,1.156381 2.454659,1.40793 l 0,6.16264 c -2.344135,0.626423 -4.072664,2.758903 -4.072664,5.301883 0,0.45215 0.06042,0.888804 0.163539,1.310064 l -5.323225,3.07373 z m -3.837857,5.71239 c -0.986927,0 -1.785975,-0.7993 -1.785975,-1.78685 0,-0.98601 0.799048,-1.78531 1.785975,-1.78531 0.986281,0 1.786201,0.7993 1.786201,1.78531 0,0.98755 -0.79992,1.78685 -1.786208,1.78685 z m 0,-20.265197 c 0.986281,0 1.786201,0.798416 1.786201,1.785336 0,0.987868 -0.79992,1.78715 -1.786208,1.78715 -0.98692,0 -1.785968,-0.799282 -1.785968,-1.78715 0,-0.98692 0.799048,-1.785336 1.785968,-1.785336 z m 14.490778,-8.383365 c 0.98692,0 1.786524,0.799282 1.786524,1.786834 0,0.987552 -0.799604,1.786834 -1.786524,1.786834 -0.986604,0 -1.785968,-0.799282 -1.785968,-1.786834 0,-0.987552 0.799364,-1.786834 1.785968,-1.786834 z m 1.420811,13.250495 0,-6.16264 c 2.344843,-0.626503 4.073062,-2.758035 4.073062,-5.301021 0,-3.034549 -2.459324,-5.492925 -5.493873,-5.492925 -3.033678,0 -5.493235,2.458376 -5.493235,5.492925 0,0.497493 0.07158,0.976725 0.195298,1.433534 l -5.307423,3.065993 c -0.994347,-0.995294 -2.367989,-1.610345 -3.885425,-1.610345 -3.034233,0 -5.494183,2.459008 -5.494183,5.492685 0,2.541722 1.729161,4.674207 4.073373,5.302207 l 0,6.091934 c -2.344212,0.6265 -4.073373,2.75749 -4.073373,5.29887 0,3.03518 2.45995,5.49326 5.49419,5.49326 3.034233,0 5.493551,-2.45808 5.493551,-5.49326 0,-0.51384 -0.07561,-1.00916 -0.208022,-1.48133 l 5.244537,-3.0275 c 0.999876,1.04159 2.402832,1.69125 3.960712,1.69125 3.034549,0 5.493873,-2.45814 5.493873,-5.491754 0,-2.54297 -1.728219,-4.67545 -4.073062,-5.301883" />
    <path
       id="path2842"
       style="fill:#424a52;fill-opacity:1;fill-rule:nonzero;stroke:none"
       d="m 80.925115,72.400034 c 0,-1.421121 0.88754,-2.367041 2.1309,-2.367041 1.24345,0 2.13098,0.94592 2.13098,2.367041 l 0,11.364913 c 0,1.421124 -0.88753,2.366964 -2.13098,2.366964 -1.24336,0 -2.1309,-0.94584 -2.1309,-2.366964 l 0,-11.364913" />
    <path
       id="path2844"
       style="fill:#424a52;fill-opacity:1;fill-rule:nonzero;stroke:none"
       d="m 88.737515,72.400034 c 0,-1.421121 0.88762,-2.367041 2.13098,-2.367041 1.09461,0 1.80596,0.590951 1.95354,1.567759 0.82828,-1.154251 2.10064,-1.746782 4.113435,-1.746782 3.3444,0 5.82963,2.130976 5.82963,5.742338 l 0,8.168629 c 0,1.421134 -0.88721,2.366974 -2.12971,2.366974 -1.24336,0 -2.1313,-0.94584 -2.1313,-2.366974 l 0,-7.429548 c 0,-1.981817 -1.24305,-2.92931 -2.781815,-2.92931 -1.74639,0 -2.7228,1.272125 -2.7228,2.92931 l 0,7.429548 c 0,1.421134 -0.88761,2.366974 -2.13098,2.366974 -1.24336,0 -2.13098,-0.94584 -2.13098,-2.366974 l 0,-11.364903" />
    <path
       id="path2846"
       style="fill:#424a52;fill-opacity:1;fill-rule:nonzero;stroke:none"
       d="m 107.41174,73.938485 -0.94638,0 c -1.15513,0 -1.86522,-0.70985 -1.86522,-1.864973 0,-1.06466 0.7996,-1.863076 1.86522,-1.863076 l 0.94638,0 0,-2.545988 c 0,-1.419628 0.88801,-2.367046 2.13075,-2.367046 1.24273,0 2.13074,0.947418 2.13074,2.367046 l 0,2.545988 1.21271,0 c 1.09579,0 2.04305,0.501519 2.04305,1.863076 0,1.332567 -0.94726,1.864973 -2.04305,1.864973 l -1.21271,0 0,9.826462 c 0,1.421124 -0.88801,2.366964 -2.13074,2.366964 -1.24274,0 -2.13075,-0.94584 -2.13075,-2.366964 l 0,-9.826462" />
    <path
       id="path2848"
       style="fill:#424a52;fill-opacity:1;fill-rule:nonzero;stroke:none"
       d="m 116.26021,72.163021 c 0,-1.42112 1.12502,-2.130028 2.18999,-2.130028 1.12502,0 2.07228,0.413508 2.07228,1.775148 l 0.0585,0 c 0.79952,-1.184197 1.65751,-1.775148 2.98873,-1.775148 1.03732,0 2.07228,0.739087 2.07228,2.277532 0,1.391819 -1.27276,1.479824 -2.54551,2.072355 -1.27355,0.590957 -2.57396,1.154175 -2.57396,2.841071 l 0,6.540986 c 0,1.421134 -0.8888,2.366974 -2.13074,2.366974 -1.24352,0 -2.13153,-0.94584 -2.13153,-2.366974 l 0,-11.601916" />
    <path
       id="path2850"
       style="fill:#424a52;fill-opacity:1;fill-rule:nonzero;stroke:none"
       d="m 127.29946,72.400034 c 0,-1.421121 0.88721,-2.367041 2.13074,-2.367041 1.24273,0 2.13153,0.94592 2.13153,2.367041 l 0,11.364913 c 0,1.421124 -0.8888,2.366964 -2.13153,2.366964 -1.24353,0 -2.13074,-0.94584 -2.13074,-2.366964 l 0,-11.364913" />
    <path
       id="path2852"
       style="fill:#424a52;fill-opacity:1;fill-rule:nonzero;stroke:none"
       d="m 135.11218,72.400034 c 0,-1.421121 0.88721,-2.367041 2.13074,-2.367041 1.09421,0 1.80524,0.590951 1.95377,1.567759 0.82876,-1.154251 2.10151,-1.746782 4.11217,-1.746782 3.34503,0 5.8313,2.130976 5.8313,5.742338 l 0,8.168629 c 0,1.421134 -0.8888,2.366974 -2.13154,2.366974 -1.24194,0 -2.13074,-0.94584 -2.13074,-2.366974 l 0,-7.429548 c 0,-1.981817 -1.24194,-2.92931 -2.78015,-2.92931 -1.74837,0 -2.72407,1.272125 -2.72407,2.92931 l 0,7.429548 c 0,1.421134 -0.88722,2.366974 -2.13074,2.366974 -1.24353,0 -2.13074,-0.94584 -2.13074,-2.366974 l 0,-11.364903" />
    <path
       id="path2854"
       style="fill:#424a52;fill-opacity:1;fill-rule:nonzero;stroke:none"
       d="m 161.71762,74.827281 c -0.79794,0 -2.4278,-1.243759 -3.81748,-1.243759 -0.76871,0 -1.45052,0.354963 -1.45052,1.183558 0,1.983087 7.39874,1.686581 7.39874,6.541307 0,2.84075 -2.39778,5.001044 -6.06752,5.001044 -2.3962,0 -5.94822,-1.361 -5.94822,-3.285154 0,-0.65123 0.65099,-1.89491 1.83447,-1.89491 1.65751,0 2.39778,1.45201 4.41002,1.45201 1.30277,0 1.68673,-0.41508 1.68673,-1.21437 0,-1.95353 -7.39873,-1.65727 -7.39873,-6.539726 0,-2.960526 2.39777,-4.973311 5.77046,-4.973311 2.10151,0 5.32804,0.977363 5.32804,3.079026 0,0.976181 -0.74027,1.894285 -1.74599,1.894285" />
    <path
       id="path2856"
       style="fill:#424a52;fill-opacity:1;fill-rule:nonzero;stroke:none"
       d="m 173.28857,83.882187 c 3.19571,0 4.32073,-3.13702 4.32073,-5.800326 0,-2.663629 -1.12502,-5.80065 -4.32073,-5.80065 -3.19572,0 -4.32074,3.137021 -4.32074,5.80065 0,2.663306 1.12502,5.800326 4.32074,5.800326 z m 6.77697,0.97673 c 0,0.918114 -0.70945,1.272994 -1.21271,1.272994 -0.53249,0 -1.21429,-0.35488 -1.21429,-1.272994 l 0,-1.09398 -0.0585,0 c -1.1266,1.597004 -2.60318,2.366974 -4.2915,2.366974 -4.43925,0 -6.92551,-3.876114 -6.92551,-8.05005 0,-4.17269 2.48626,-8.048868 6.92551,-8.048868 1.80524,0 3.07879,0.768477 4.2915,2.100089 l 0.0585,0 0,-0.828596 c 0,-0.917554 0.6818,-1.271493 1.21429,-1.271493 0.50326,0 1.21271,0.353939 1.21271,1.271493 l 0,13.554431" />
    <path
       id="path2858"
       style="fill:#424a52;fill-opacity:1;fill-rule:nonzero;stroke:none"
       d="m 184.68255,71.423308 c 0,-0.857985 0.50325,-1.390315 1.30198,-1.390315 0.79795,0 1.3012,0.53233 1.3012,1.390315 l 0,1.331618 0.0601,0 c 0.59253,-1.213744 2.04304,-2.721933 3.55044,-2.721933 0.91803,0 1.45052,0.590951 1.45052,1.331618 0,0.739157 -0.53249,1.212866 -1.62749,1.419623 -1.539,0.26601 -3.43352,1.420254 -3.43352,4.469031 l 0,7.488402 c 0,0.857914 -0.50325,1.390244 -1.3012,1.390244 -0.79873,0 -1.30198,-0.53233 -1.30198,-1.390244 l 0,-13.318359" />
    <path
       id="path2860"
       style="fill:#424a52;fill-opacity:1;fill-rule:nonzero;stroke:none"
       d="m 201.60998,70.032993 c 2.66323,0 4.23225,0.916606 4.23225,1.981898 0,0.53233 -0.444,1.094922 -1.06656,1.094922 -1.00414,0 -1.38968,-0.828602 -3.16569,-0.828602 -3.22495,0 -4.4985,3.137021 -4.4985,5.80065 0,2.663306 1.27355,5.800326 4.4985,5.800326 1.83605,0 2.3085,-0.8873 3.13646,-0.8873 0.59253,0 1.00809,0.38578 1.00809,1.09563 0,0.976734 -1.45051,2.041394 -4.14455,2.041394 -4.79477,0 -7.10327,-3.876114 -7.10327,-8.05005 0,-4.17269 2.3085,-8.048868 7.10327,-8.048868" />
    <text
       xml:space="preserve"
       style="font-size:20px;font-style:normal;font-weight:normal;fill:#424a52;fill-opacity:1;stroke:none;font-family:VAGRounded-Light;-inkscape-font-specification:VAGRounded-Light"
       x="215.91171"
       y="86.025238"
       id="text2952"><tspan
         sodipodi:role="line"
         id="tspan2954"
         x="215.91171"
         y="86.025238"
         style="font-size:30px;fill:#424a52;fill-opacity:1">ltd</tspan></text>
    <flowRoot
       xml:space="preserve"
       id="flowRoot2956"
       style="fill:black;stroke:none;stroke-opacity:1;stroke-width:1px;stroke-linejoin:miter;stroke-linecap:butt;fill-opacity:1;font-family:VAGRounded-Light;font-style:normal;font-weight:normal;font-size:20;-inkscape-font-specification:VAGRounded-Light"><flowRegion
         id="flowRegion2958"><rect
           id="rect2960"
           width="73.993233"
           height="66.844131"
           x="234.84808"
           y="66.5867" /></flowRegion><flowPara
         id="flowPara2962"></flowPara></flowRoot>    <text
       xml:space="preserve"
       style="font-size:20px;font-style:normal;font-weight:normal;fill:#808080;fill-opacity:1;stroke:none;font-family:VAGRounded-Light;-inkscape-font-specification:VAGRounded-Light"
       x="67.377457"
       y="101.56415"
       id="text2964"><tspan
         sodipodi:role="line"
         x="67.377457"
         y="101.56415"
         style="font-size:12px;fill:#808080"
         id="tspan2990">connecting architecture to implementation</tspan></text>
    <text
       xml:space="preserve"
       style="font-size:20px;font-style:normal;font-weight:normal;fill:#333333;fill-opacity:1;stroke:none;font-family:VAGRounded-Light;-inkscape-font-specification:VAGRounded-Light"
       x="27.333714"
       y="169.91483"
       id="text2964-1"><tspan
         sodipodi:role="line"
         id="tspan2966"
         x="27.333714"
         y="169.91483"
         style="font-size:16px;font-style:normal;font-weight:normal;fill:#333333">Andrew McVeigh</tspan><tspan
         sodipodi:role="line"
         x="27.333714"
         y="189.91483"
         style="font-size:16px;fill:#333333"
         id="tspan2990-7" /></text>
    <text
       xml:space="preserve"
       style="font-size:20px;font-style:normal;font-weight:normal;fill:#4d4d4d;fill-opacity:1;stroke:none;font-family:VAGRounded-Light;-inkscape-font-specification:VAGRounded-Light"
       x="187.664"
       y="153.44832"
       id="text3061"><tspan
         sodipodi:role="line"
         x="187.664"
         y="153.44832"
         style="font-size:12px;fill:#4d4d4d"
         id="tspan3129">http://intrinsarc.com</tspan><tspan
         sodipodi:role="line"
         x="187.664"
         y="168.44832"
         style="font-size:12px;fill:#4d4d4d"
         id="tspan3109">info@intrinsarc.com</tspan><tspan
         sodipodi:role="line"
         x="187.664"
         y="183.44832"
         id="tspan3065"
         style="font-size:12px;fill:#4d4d4d">+44 (0)7535 115 285</tspan></text>
    <flowRoot
       xml:space="preserve"
       id="flowRoot3137"
       style="fill:black;stroke:none;stroke-opacity:1;stroke-width:1px;stroke-linejoin:miter;stroke-linecap:butt;fill-opacity:1;font-family:VAGRounded-Light;font-style:normal;font-weight:normal;font-size:20;-inkscape-font-specification:VAGRounded-Light"><flowRegion
         id="flowRegion3139"><rect
           id="rect3141"
           width="345.65921"
           height="125.46679"
           x="2.1447313"
           y="13.325871" /></flowRegion><flowPara
         id="flowPara3143"></flowPara></flowRoot>  </g>
</svg>
